<svg xmlns="http://www.w3.org/2000/svg" xmlns:xlink= "http://www.w3.org/1999/xlink"
 viewBox="0 0 72 67"><g id="Final" stroke="none" stroke-width="1" fill="none" fill-rule="evenodd"><g id="Assets" transform="translate(-346.000000, -201.000000)"><g id="Multicolor/Money/32--piggy-bank-money-saving-1" transform="translate(344.000000, 196.000000)"><g id="32--piggy-bank-money-saving-1" transform="translate(2.280000, 5.700000)"><path d="M68.5986364,32.7075767 C68.5986364,14.6747753 54.0597845,0.0557248889 36.1259091,0.0557248889 C18.1912218,0.0557248889 3.65318182,14.6747753 3.65318182,32.7075767 C3.65318182,37.5114804 4.69312091,42.0688627 6.54569,46.1764656 L65.7053164,46.1764656 C67.5586973,42.0688627 68.5986364,37.5114804 68.5986364,32.7075767" id="Fill-1" fill="#E8F4FA"></path><path d="M6.54609591,46.1764656 C11.6483732,57.4878834 22.9691777,65.3594286 36.126315,65.3594286 C49.2826405,65.3594286 60.6026332,57.4878834 65.7049105,46.1764656 L6.54609591,46.1764656 Z" id="Fill-3" fill="#FFFFFF"></path><path d="M4.05909091,46.1764656 L67.3809091,46.1764656" id="Stroke-5" stroke="#1A1816" stroke-width="0.75" stroke-linecap="round" stroke-linejoin="round"></path><path d="M0.405909091,46.1764656 L2.43545455,46.1764656" id="Stroke-7" stroke="#1A1816" stroke-width="0.75" stroke-linecap="round" stroke-linejoin="round"></path><path d="M69.0045455,46.1764656 L71.0340909,46.1764656" id="Stroke-9" stroke="#1A1816" stroke-width="0.75" stroke-linecap="round" stroke-linejoin="round"></path><path d="M43.2682043,21.3044889 C41.8166734,21.3044889 40.4179106,21.4832578 39.0962706,21.8040622 C38.1180297,20.1624904 36.3490779,19.0515111 34.3065434,19.0515111 C34.0548797,19.0515111 33.8105225,19.0686533 33.5702243,19.1021215 C33.1602561,19.1600785 32.8144215,19.4400681 32.6723534,19.8310741 C32.5294734,20.22208 32.6139025,20.6579822 32.8907325,20.9681748 C33.5970143,21.76488 34.0824815,22.7623941 34.2440334,23.8692919 C31.9961088,25.3198504 30.2831725,27.2952874 29.3958552,29.5703052 C28.9550379,30.7000593 27.8720725,31.4428889 26.6665225,31.4428889 C25.9732297,31.4428889 25.4471715,32.0673556 25.5608261,32.754677 L26.3076988,37.2598163 C26.3986225,37.8026533 26.8646061,38.2018222 27.4133952,38.2018222 L30.1256797,38.2018222 C31.0998615,39.8654341 32.5408388,41.3110948 34.3065434,42.4375837 L34.3065434,46.0864281 C34.3065434,47.3304637 35.3091388,48.3402222 36.5463497,48.3402222 L38.7869679,48.3402222 C40.0241788,48.3402222 41.0275861,47.3304637 41.0275861,46.0864281 L41.0275861,44.8179037 C41.7590343,44.9093289 42.5067188,44.9599393 43.2682043,44.9599393 C44.0321252,44.9599393 44.7757506,44.8979007 45.5096343,44.8056593 L45.5096343,46.0864281 C45.5096343,47.3304637 46.5122297,48.3402222 47.7494406,48.3402222 L49.9900588,48.3402222 C51.2280815,48.3402222 52.230677,47.3304637 52.230677,46.0864281 L52.230677,42.4424815 C55.6354425,40.2768474 57.8314106,36.9161556 57.8314106,33.1326222 C57.8314106,26.599803 51.3116988,21.3044889 43.2682043,21.3044889" id="Fill-11" fill="#FFA694"></path><path d="M57.8317354,33.1322141 C57.8317354,26.5993948 51.3120235,21.3040807 43.268529,21.3040807 C41.8161863,21.3040807 40.4182354,21.4828496 39.0965954,21.8036541 C38.1183545,20.1620822 36.3485908,19.051103 34.3060563,19.051103 C34.0552045,19.051103 33.8100354,19.0682452 33.5697372,19.1025296 C33.159769,19.1604867 32.8147463,19.43966 32.6726781,19.8314822 C32.5297981,20.2216719 32.6142272,20.6583904 32.8902454,20.9677667 C33.5965272,21.7644719 34.0819945,22.7628022 34.2435463,23.8697 C31.9964335,25.3194422 30.2826854,27.2948793 29.3961799,29.5707133 C28.9553626,30.7004674 27.8723972,31.4424807 26.6660354,31.4424807 C26.1984281,31.4424807 25.8120026,31.7306333 25.6423326,32.126537 C29.7509445,36.7639163 36.195969,39.8911474 43.268529,39.8911474 C48.5964917,39.8911474 53.7174408,38.0667252 57.5735772,35.2513193 C57.7278226,34.5623652 57.8317354,33.8579015 57.8317354,33.1322141" id="Fill-13" fill="#FFCABF"></path><path d="M57.8317354,33.1322141 C57.8317354,33.1322141 62.9153408,32.0391933 60.5813635,27.3454896" id="Stroke-15" stroke="#1A1816" stroke-width="0.75" stroke-linecap="round" stroke-linejoin="round"></path><path d="M43.2682043,21.3044889 C41.8166734,21.3044889 40.4179106,21.4832578 39.0962706,21.8040622 C38.1180297,20.1624904 36.3490779,19.0515111 34.3065434,19.0515111 C34.0548797,19.0515111 33.8105225,19.0686533 33.5702243,19.1021215 C33.1602561,19.1600785 32.8144215,19.4400681 32.6723534,19.8310741 C32.5294734,20.22208 32.6139025,20.6579822 32.8907325,20.9681748 C33.5970143,21.76488 34.0824815,22.7623941 34.2440334,23.8692919 C31.9961088,25.3198504 30.2831725,27.2952874 29.3958552,29.5703052 C28.9550379,30.7000593 27.8720725,31.4428889 26.6665225,31.4428889 C25.9732297,31.4428889 25.4471715,32.0673556 25.5608261,32.754677 L26.3076988,37.2598163 C26.3986225,37.8026533 26.8646061,38.2018222 27.4133952,38.2018222 L30.1256797,38.2018222 C31.0998615,39.8654341 32.5408388,41.3110948 34.3065434,42.4375837 L34.3065434,46.0864281 C34.3065434,47.3304637 35.3091388,48.3402222 36.5463497,48.3402222 L38.7869679,48.3402222 C40.0241788,48.3402222 41.0275861,47.3304637 41.0275861,46.0864281 L41.0275861,44.8179037 C41.7590343,44.9093289 42.5067188,44.9599393 43.2682043,44.9599393 C44.0321252,44.9599393 44.7757506,44.8979007 45.5096343,44.8056593 L45.5096343,46.0864281 C45.5096343,47.3304637 46.5122297,48.3402222 47.7494406,48.3402222 L49.9900588,48.3402222 C51.2280815,48.3402222 52.230677,47.3304637 52.230677,46.0864281 L52.230677,42.4424815 C55.6354425,40.2768474 57.8314106,36.9161556 57.8314106,33.1326222 C57.8314106,26.599803 51.3116988,21.3044889 43.2682043,21.3044889 Z" id="Stroke-17" stroke="#1A1816" stroke-width="0.75" stroke-linecap="round" stroke-linejoin="round"></path><path d="M39.7251862,25.2435267 C40.7269698,24.8884378 41.9487562,24.6810985 43.2679607,24.6810985 C44.5912244,24.6810985 45.816258,24.8900704 46.8204771,25.2467919" id="Stroke-19" stroke="#1A1816" stroke-width="0.75" stroke-linecap="round" stroke-linejoin="round"></path><path d="M42.148707,11.2889415 C42.148707,12.8448022 40.8944479,14.1051637 39.3479343,14.1051637 C37.8014206,14.1051637 36.5471615,12.8448022 36.5471615,11.2889415 C36.5471615,9.73308074 37.8014206,8.47271926 39.3479343,8.47271926 C40.8944479,8.47271926 42.148707,9.73308074 42.148707,11.2889415" id="Fill-21" fill="#FFE600"></path><path d="M39.3478531,8.47271926 C37.8013395,8.47271926 36.5470804,9.73308074 36.5470804,11.2889415 C36.5470804,12.0668719 36.861254,12.7705193 37.3678285,13.2807044 L41.3278776,9.29717852 C40.8213031,8.78780963 40.120704,8.47271926 39.3478531,8.47271926" id="Fill-23" fill="#FFFACF"></path><path d="M42.148707,11.2889415 C42.148707,12.8448022 40.8944479,14.1051637 39.3479343,14.1051637 C37.8014206,14.1051637 36.5471615,12.8448022 36.5471615,11.2889415 C36.5471615,9.73308074 37.8014206,8.47271926 39.3479343,8.47271926 C40.8944479,8.47271926 42.148707,9.73308074 42.148707,11.2889415 Z" id="Stroke-25" stroke="#1A1816" stroke-width="0.75" stroke-linejoin="round"></path><path d="M49.9902212,16.3581415 C49.9902212,17.9140022 48.7359621,19.1743637 47.1894485,19.1743637 C45.6429348,19.1743637 44.3894875,17.9140022 44.3894875,16.3581415 C44.3894875,14.8022807 45.6429348,13.5419193 47.1894485,13.5419193 C48.7359621,13.5419193 49.9902212,14.8022807 49.9902212,16.3581415" id="Fill-27" fill="#FFE600"></path><path d="M47.1892861,13.5419193 C45.6427725,13.5419193 44.3893252,14.8022807 44.3893252,16.3581415 C44.3893252,17.1360719 44.702687,17.8397193 45.2092615,18.3499044 L49.1693106,14.3663785 C48.6627361,13.8570096 47.9629488,13.5419193 47.1892861,13.5419193" id="Fill-29" fill="#FFFACF"></path><path d="M49.9902212,16.3581415 C49.9902212,17.9140022 48.7359621,19.1743637 47.1894485,19.1743637 C45.6429348,19.1743637 44.3894875,17.9140022 44.3894875,16.3581415 C44.3894875,14.8022807 45.6429348,13.5419193 47.1894485,13.5419193 C48.7359621,13.5419193 49.9902212,14.8022807 49.9902212,16.3581415 Z" id="Stroke-31" stroke="#1A1816" stroke-width="0.75" stroke-linejoin="round"></path><path d="M32.3459213,53.2508975 C32.3459213,54.494933 27.5805485,55.503059 21.7029849,55.503059 C15.8246095,55.503059 11.0592367,54.494933 11.0592367,53.2508975 C11.0592367,52.0060456 15.8246095,50.9979197 21.7029849,50.9979197 C27.5805485,50.9979197 32.3459213,52.0060456 32.3459213,53.2508975" id="Fill-33" fill-opacity="0.15" fill="#020202"></path><path d="M39.1876814,46.9789665 C39.126795,46.5520436 38.8572714,46.1847102 38.4692223,46.0002273 C38.081985,45.814928 37.6281786,45.8394169 37.2620486,46.0614495 C35.1902886,47.3201784 32.1362286,47.8736273 30.0125123,47.5569043 C29.6147214,47.498131 29.2128714,47.630371 28.9262995,47.9152584 C28.6413514,48.1993295 28.5041541,48.6033961 28.5585459,49.0041976 L28.9222405,51.6498139 C29.0034223,52.242445 29.4783359,52.6971221 30.071775,52.7526302 C32.5104768,52.9795606 35.7163468,52.4881502 38.1120223,51.5134924 C39.0667205,51.1257517 39.6366168,50.1323191 39.4904895,49.1078673 L39.1876814,46.9789665 Z" id="Fill-35" fill="#6DD627"></path><path d="M39.1876814,46.9789665 C39.126795,46.5520436 38.8572714,46.1847102 38.4692223,46.0002273 C38.081985,45.814928 37.6281786,45.8394169 37.2620486,46.0614495 C35.1902886,47.3201784 32.1362286,47.8736273 30.0125123,47.5569043 C29.6147214,47.498131 29.2128714,47.630371 28.9262995,47.9152584 C28.6413514,48.1993295 28.5041541,48.6033961 28.5585459,49.0041976 L28.9222405,51.6498139 C29.0034223,52.242445 29.4783359,52.6971221 30.071775,52.7526302 C32.5104768,52.9795606 35.7163468,52.4881502 38.1120223,51.5134924 C39.0667205,51.1257517 39.6366168,50.1323191 39.4904895,49.1078673 L39.1876814,46.9789665 Z" id="Stroke-37" stroke="#1A1816" stroke-width="0.75" stroke-linejoin="round"></path><path d="M34.9391121,50.0775456 C34.8149039,50.5950775 34.2961521,50.9126167 33.7814594,50.7860908 C33.2675785,50.6611975 32.952593,50.1395841 33.0768012,49.6220523 C33.2018212,49.1053367 33.7197612,48.7877975 34.2344539,48.9135071 C34.7483348,49.0392167 35.0641321,49.5608301 34.9391121,50.0775456" id="Fill-39" fill="#C8FFA1"></path><path d="M22.8228881,44.8023124 C22.8228881,43.8692858 22.0711445,43.1117628 21.1432363,43.1117628 L15.540879,43.1117628 C14.6137826,43.1117628 13.8604154,43.8692858 13.8604154,44.8023124 C13.8604154,45.7353391 14.6137826,46.4920458 15.540879,46.4920458 L21.1432363,46.4920458 C22.0711445,46.4920458 22.8228881,45.7353391 22.8228881,44.8023124" id="Fill-41" fill="#FFE600"></path><path d="M22.8228881,44.8023124 C22.8228881,43.8692858 22.0711445,43.1117628 21.1432363,43.1117628 L15.540879,43.1117628 C14.6137826,43.1117628 13.8604154,43.8692858 13.8604154,44.8023124 L22.8228881,44.8023124 Z" id="Fill-43" fill="#FFFACF"></path><path d="M21.7026602,48.1812893 C21.7026602,47.2482627 20.9501047,46.491556 20.0230084,46.491556 L14.4206511,46.491556 C13.4927429,46.491556 12.7409993,47.2482627 12.7409993,48.1812893 C12.7409993,49.114316 13.4927429,49.8710227 14.4206511,49.8710227 L20.0230084,49.8710227 C20.9501047,49.8710227 21.7026602,49.114316 21.7026602,48.1812893" id="Fill-45" fill="#FFE600"></path><path d="M20.0227648,46.4917193 L14.4212194,46.4917193 C13.4924994,46.4917193 12.7407557,47.2484259 12.7407557,48.1814526 L21.7024166,48.1814526 C21.7024166,47.2484259 20.950673,46.4917193 20.0227648,46.4917193" id="Fill-47" fill="#FFFACF"></path><path d="M21.7026602,51.5609193 C21.7026602,50.6278926 20.9501047,49.8711859 20.0230084,49.8711859 L14.4206511,49.8711859 C13.4927429,49.8711859 12.7409993,50.6278926 12.7409993,51.5609193 C12.7409993,52.4939459 13.4927429,53.2506526 14.4206511,53.2506526 L20.0230084,53.2506526 C20.9501047,53.2506526 21.7026602,52.4939459 21.7026602,51.5609193" id="Fill-49" fill="#FFE600"></path><path d="M20.0227648,49.8708594 L14.4212194,49.8708594 C13.4924994,49.8708594 12.7407557,50.6275661 12.7407557,51.5605927 L21.7024166,51.5605927 C21.7024166,50.6275661 20.950673,49.8708594 20.0227648,49.8708594" id="Fill-51" fill="#FFFACF"></path><path d="M30.6651329,51.5609193 C30.6651329,50.6278926 29.9125775,49.8711859 28.9846693,49.8711859 L23.3831238,49.8711859 C22.4552156,49.8711859 21.7026602,50.6278926 21.7026602,51.5609193 C21.7026602,52.4939459 22.4552156,53.2506526 23.3831238,53.2506526 L28.9846693,53.2506526 C29.9125775,53.2506526 30.6651329,52.4939459 30.6651329,51.5609193" id="Fill-53" fill="#FFE600"></path><path d="M28.9844257,49.8708594 L23.3836921,49.8708594 C22.4549721,49.8708594 21.7024166,50.6275661 21.7024166,51.5605927 L30.6648894,51.5605927 C30.6648894,50.6275661 29.9131457,49.8708594 28.9844257,49.8708594" id="Fill-55" fill="#FFFACF"></path><path d="M30.6651329,48.1812893 C30.6651329,47.2482627 29.9125775,46.491556 28.9846693,46.491556 L23.3831238,46.491556 C22.4552156,46.491556 21.7026602,47.2482627 21.7026602,48.1812893 C21.7026602,49.114316 22.4552156,49.8710227 23.3831238,49.8710227 L28.9846693,49.8710227 C29.9125775,49.8710227 30.6651329,49.114316 30.6651329,48.1812893" id="Fill-57" fill="#FFE600"></path><path d="M28.9844257,46.4917193 L23.3836921,46.4917193 C22.4549721,46.4917193 21.7024166,47.2484259 21.7024166,48.1814526 L30.6648894,48.1814526 C30.6648894,47.2484259 29.9131457,46.4917193 28.9844257,46.4917193" id="Fill-59" fill="#FFFACF"></path><path d="M22.8228881,44.8023124 C22.8228881,43.8692858 22.0711445,43.1117628 21.1432363,43.1117628 L15.540879,43.1117628 C14.6137826,43.1117628 13.8604154,43.8692858 13.8604154,44.8023124 C13.8604154,45.7353391 14.6137826,46.4920458 15.540879,46.4920458 L21.1432363,46.4920458 C22.0711445,46.4920458 22.8228881,45.7353391 22.8228881,44.8023124 Z" id="Stroke-61" stroke="#1A1816" stroke-width="0.75" stroke-linecap="round" stroke-linejoin="round"></path><path d="M26.1834906,41.4221111 C26.1834906,40.4890844 25.431747,39.7323778 24.5038388,39.7323778 L18.9014815,39.7323778 C17.9743852,39.7323778 17.2218297,40.4890844 17.2218297,41.4221111 C17.2218297,42.3551378 17.9743852,43.1118444 18.9014815,43.1118444 L24.5038388,43.1118444 C25.431747,43.1118444 26.1834906,42.3551378 26.1834906,41.4221111" id="Fill-63" fill="#FFE600"></path><path d="M24.5035953,39.732541 L18.9020498,39.732541 C17.9741416,39.732541 17.2215862,40.4892477 17.2215862,41.4222744 L26.1832471,41.4222744 C26.1832471,40.4892477 25.4323153,39.732541 24.5035953,39.732541" id="Fill-65" fill="#FFFACF"></path><path d="M26.1834906,41.4221111 C26.1834906,40.4890844 25.431747,39.7323778 24.5038388,39.7323778 L18.9014815,39.7323778 C17.9743852,39.7323778 17.2218297,40.4890844 17.2218297,41.4221111 C17.2218297,42.3551378 17.9743852,43.1118444 18.9014815,43.1118444 L24.5038388,43.1118444 C25.431747,43.1118444 26.1834906,42.3551378 26.1834906,41.4221111 Z" id="Stroke-67" stroke="#1A1816" stroke-width="0.75" stroke-linecap="round" stroke-linejoin="round"></path><path d="M21.7026602,48.1812893 C21.7026602,47.2482627 20.9501047,46.491556 20.0230084,46.491556 L14.4206511,46.491556 C13.4927429,46.491556 12.7409993,47.2482627 12.7409993,48.1812893 C12.7409993,49.114316 13.4927429,49.8710227 14.4206511,49.8710227 L20.0230084,49.8710227 C20.9501047,49.8710227 21.7026602,49.114316 21.7026602,48.1812893 Z" id="Stroke-69" stroke="#1A1816" stroke-width="0.75" stroke-linecap="round" stroke-linejoin="round"></path><path d="M21.7026602,51.5609193 C21.7026602,50.6278926 20.9501047,49.8711859 20.0230084,49.8711859 L14.4206511,49.8711859 C13.4927429,49.8711859 12.7409993,50.6278926 12.7409993,51.5609193 C12.7409993,52.4939459 13.4927429,53.2506526 14.4206511,53.2506526 L20.0230084,53.2506526 C20.9501047,53.2506526 21.7026602,52.4939459 21.7026602,51.5609193 Z" id="Stroke-71" stroke="#1A1816" stroke-width="0.75" stroke-linecap="round" stroke-linejoin="round"></path><path d="M30.6651329,51.5609193 C30.6651329,50.6278926 29.9125775,49.8711859 28.9846693,49.8711859 L23.3831238,49.8711859 C22.4552156,49.8711859 21.7026602,50.6278926 21.7026602,51.5609193 C21.7026602,52.4939459 22.4552156,53.2506526 23.3831238,53.2506526 L28.9846693,53.2506526 C29.9125775,53.2506526 30.6651329,52.4939459 30.6651329,51.5609193 Z" id="Stroke-73" stroke="#1A1816" stroke-width="0.75" stroke-linecap="round" stroke-linejoin="round"></path><path d="M30.6651329,48.1812893 C30.6651329,47.2482627 29.9125775,46.491556 28.9846693,46.491556 L23.3831238,46.491556 C22.4552156,46.491556 21.7026602,47.2482627 21.7026602,48.1812893 C21.7026602,49.114316 22.4552156,49.8710227 23.3831238,49.8710227 L28.9846693,49.8710227 C29.9125775,49.8710227 30.6651329,49.114316 30.6651329,48.1812893 Z" id="Stroke-75" stroke="#1A1816" stroke-width="0.75" stroke-linecap="round" stroke-linejoin="round"></path><path d="M31.7853608,44.8023124 C31.7853608,43.8692858 31.0328054,43.1117628 30.1048972,43.1117628 L24.5033517,43.1117628 C23.5754435,43.1117628 22.8228881,43.8692858 22.8228881,44.8023124 C22.8228881,45.7353391 23.5754435,46.4920458 24.5033517,46.4920458 L30.1048972,46.4920458 C31.0328054,46.4920458 31.7853608,45.7353391 31.7853608,44.8023124" id="Fill-77" fill="#FFE600"></path><path d="M30.1046536,43.112171 L24.50392,43.112171 C23.5752,43.112171 22.8226445,43.8688776 22.8226445,44.8027206 L31.7851173,44.8027206 C31.7851173,43.8688776 31.0333736,43.112171 30.1046536,43.112171" id="Fill-79" fill="#FFFACF"></path><path d="M31.7853608,44.8023124 C31.7853608,43.8692858 31.0328054,43.1117628 30.1048972,43.1117628 L24.5033517,43.1117628 C23.5754435,43.1117628 22.8228881,43.8692858 22.8228881,44.8023124 C22.8228881,45.7353391 23.5754435,46.4920458 24.5033517,46.4920458 L30.1048972,46.4920458 C31.0328054,46.4920458 31.7853608,45.7353391 31.7853608,44.8023124 Z" id="Stroke-81" stroke="#1A1816" stroke-width="0.75" stroke-linecap="round" stroke-linejoin="round"></path><path d="M12.9692825,36.0641871 L15.606068,35.1801382 C15.7075453,35.1458538 15.775738,35.0511634 15.775738,34.9442286 C15.775738,34.8364775 15.7075453,34.7417871 15.606068,34.7075027 L13.4385135,33.980999 C13.1430116,33.8822271 12.9116435,33.6487664 12.8126016,33.3516345 L12.0900835,31.1721234 C12.0559871,31.0709027 11.9618162,31.0023338 11.8546562,31.0023338 C11.748308,31.0023338 11.6541371,31.0709027 11.6200407,31.1721234 L10.8975225,33.3516345 C10.7992925,33.6487664 10.5671125,33.8822271 10.2716107,33.980999 L8.10243255,34.7075027 C8.00176709,34.7417871 7.93357436,34.8364775 7.93357436,34.9442286 C7.93357436,35.0511634 8.00176709,35.1458538 8.10243255,35.1801382 L10.2716107,35.9066419 C10.5671125,36.0062301 10.7984807,36.2396908 10.8975225,36.5368227 L11.6200407,38.7171501 C11.6541371,38.8191871 11.748308,38.887756 11.8546562,38.887756 C11.9618162,38.887756 12.0559871,38.8191871 12.0900835,38.7171501 L12.9692825,36.0641871 Z" id="Fill-83" fill="#FFEC60"></path><path d="M12.9692825,36.0641871 L15.606068,35.1801382 C15.7075453,35.1458538 15.775738,35.0511634 15.775738,34.9442286 C15.775738,34.8364775 15.7075453,34.7417871 15.606068,34.7075027 L13.4385135,33.980999 C13.1430116,33.8822271 12.9116435,33.6487664 12.8126016,33.3516345 L12.0900835,31.1721234 C12.0559871,31.0709027 11.9618162,31.0023338 11.8546562,31.0023338 C11.748308,31.0023338 11.6541371,31.0709027 11.6200407,31.1721234 L10.8975225,33.3516345 C10.7992925,33.6487664 10.5671125,33.8822271 10.2716107,33.980999 L8.10243255,34.7075027 C8.00176709,34.7417871 7.93357436,34.8364775 7.93357436,34.9442286 C7.93357436,35.0511634 8.00176709,35.1458538 8.10243255,35.1801382 L10.2716107,35.9066419 C10.5671125,36.0062301 10.7984807,36.2396908 10.8975225,36.5368227 L11.6200407,38.7171501 C11.6541371,38.8191871 11.748308,38.887756 11.8546562,38.887756 C11.9618162,38.887756 12.0559871,38.8191871 12.0900835,38.7171501 L12.9692825,36.0641871 Z" id="Stroke-85" stroke="#1A1816" stroke-width="0.75" stroke-linecap="round" stroke-linejoin="round"></path><path d="M34.7726082,29.7530739 C34.7726082,30.0126561 34.5639709,30.2224443 34.3066245,30.2224443 C34.0476545,30.2224443 33.8398291,30.0126561 33.8398291,29.7530739 C33.8398291,29.4934917 34.0476545,29.2837036 34.3066245,29.2837036 C34.5639709,29.2837036 34.7726082,29.4934917 34.7726082,29.7530739 Z" id="Stroke-87" stroke="#1A1816" stroke-width="0.75"></path></g></g></g></g></svg>