<svg xmlns="http://www.w3.org/2000/svg" xmlns:xlink= "http://www.w3.org/1999/xlink" viewBox="0 0 72 53"><g id="Final" stroke="none" stroke-width="1" fill="none" fill-rule="evenodd"><g id="Assets" transform="translate(-142.000000, -201.000000)"><g id="Multicolor/Business/40--easy-to-use-2" transform="translate(140.000000, 196.000000)"><g id="40--easy-to-use-2" transform="translate(2.280000, 5.700000)"><path d="M68.5986364,32.7075767 C68.5986364,14.6747753 54.0597845,0.0557248889 36.1259091,0.0557248889 C18.1912218,0.0557248889 3.65318182,14.6747753 3.65318182,32.7075767 C3.65318182,37.5114804 4.69312091,42.0688627 6.54569,46.1764656 L65.7053164,46.1764656 C67.5586973,42.0688627 68.5986364,37.5114804 68.5986364,32.7075767" id="Fill-1" fill="#E8F4FA"></path><path d="M4.05909091,46.1764656 L67.3809091,46.1764656" id="Stroke-5" stroke="#1A1816" stroke-width="0.75" stroke-linecap="round" stroke-linejoin="round"></path><path d="M0.405909091,46.1764656 L2.43545455,46.1764656" id="Stroke-7" stroke="#1A1816" stroke-width="0.75" stroke-linecap="round" stroke-linejoin="round"></path><path d="M69.0045455,46.1764656 L71.0340909,46.1764656" id="Stroke-9" stroke="#1A1816" stroke-width="0.75" stroke-linecap="round" stroke-linejoin="round"></path><path d="M63.3652346,50.1640375 C63.3652346,51.006013 50.8815236,51.688075 35.4826173,51.688075 C20.083711,51.688075 7.6,51.006013 7.6,50.1640375 C7.6,49.322062 20.083711,48.64 35.4826173,48.64 C50.8815236,48.64 63.3652346,49.322062 63.3652346,50.1640375" id="Fill-3" fill="#020202" opacity="0.15"></path><path d="M30.7588889,26.8113446 L13.5162716,26.8113446 C11.8361086,26.8113446 10.4734568,28.1754686 10.4734568,29.8594196 L10.4734568,47.1318446 C10.4734568,48.8149121 11.8361086,50.1799196 13.5162716,50.1799196 L30.7588889,50.1799196 C32.4390519,50.1799196 33.8017037,48.8149121 33.8017037,47.1318446 L33.8017037,29.8594196 C33.8017037,28.1754686 32.4390519,26.8113446 30.7588889,26.8113446" id="Fill-5" fill="#6DD627"></path><path d="M30.7588889,26.8113446 L13.5162716,26.8113446 C11.8361086,26.8113446 10.4734568,28.1754686 10.4734568,29.8594196 L10.4734568,47.1318446 C10.4734568,48.8149121 11.8361086,50.1799196 13.5162716,50.1799196 L30.7588889,50.1799196 C32.4390519,50.1799196 33.8017037,48.8149121 33.8017037,47.1318446 L33.8017037,29.8594196 C33.8017037,28.1754686 32.4390519,26.8113446 30.7588889,26.8113446 Z" id="Stroke-7" stroke="#1A1816" stroke-width="0.75" stroke-linecap="round" stroke-linejoin="round"></path><path d="M29.8769136,47.1318446 L14.3982469,47.1318446 C13.9105146,47.1318446 13.5162716,46.7360366 13.5162716,46.2483446 L13.5162716,30.7429196 C13.5162716,30.2543441 13.9105146,29.8594196 14.3982469,29.8594196 L29.8769136,29.8594196 C30.3646459,29.8594196 30.7588889,30.2543441 30.7588889,30.7429196 L30.7588889,46.2483446 C30.7588889,46.7360366 30.3646459,47.1318446 29.8769136,47.1318446" id="Fill-9" fill="#FFFFFF"></path><path d="M29.8769136,47.1318446 L14.3982469,47.1318446 C13.9105146,47.1318446 13.5162716,46.7360366 13.5162716,46.2483446 L13.5162716,30.7429196 C13.5162716,30.2543441 13.9105146,29.8594196 14.3982469,29.8594196 L29.8769136,29.8594196 C30.3646459,29.8594196 30.7588889,30.2543441 30.7588889,30.7429196 L30.7588889,46.2483446 C30.7588889,46.7360366 30.3646459,47.1318446 29.8769136,47.1318446 Z" id="Stroke-11" stroke="#1A1816" stroke-width="0.75" stroke-linecap="round" stroke-linejoin="round"></path><path d="M24.9537274,37.7425367 C25.4511615,37.2389417 25.7413314,36.5268407 25.6787111,35.7475937 C25.5719921,34.4011397 24.3460464,33.4160372 22.9966242,33.4160372 L19.6019012,33.4160372 C19.0418469,33.4160372 18.5876296,33.8701562 18.5876296,34.4311787 L18.5876296,42.5593787 C18.5876296,43.1204012 19.0418469,43.5762872 19.6019012,43.5762872 L23.7321916,43.5762872 C25.3726657,43.5762872 26.7018025,42.2439692 26.7018025,40.6006592 L26.7018025,40.4539982 C26.7018025,39.2471372 25.9838746,38.2090247 24.9537274,37.7425367" id="Fill-13" fill="#6DD627"></path><path d="M24.9537274,37.7425367 C25.4511615,37.2389417 25.7413314,36.5268407 25.6787111,35.7475937 C25.5719921,34.4011397 24.3460464,33.4160372 22.9966242,33.4160372 L19.6019012,33.4160372 C19.0418469,33.4160372 18.5876296,33.8701562 18.5876296,34.4311787 L18.5876296,42.5593787 C18.5876296,43.1204012 19.0418469,43.5762872 19.6019012,43.5762872 L23.7321916,43.5762872 C25.3726657,43.5762872 26.7018025,42.2439692 26.7018025,40.6006592 L26.7018025,40.4539982 C26.7018025,39.2471372 25.9838746,38.2090247 24.9537274,37.7425367 Z" id="Stroke-15" stroke="#1A1816" stroke-width="0.75" stroke-linecap="round" stroke-linejoin="round"></path><path d="M22.1372275,37.479342 L21.1238378,37.479342 L21.1238378,35.447292 L22.1372275,35.447292 C22.6981638,35.447292 23.1514991,35.9022945 23.1514991,36.463317 C23.1514991,37.0243395 22.6981638,37.479342 22.1372275,37.479342" id="Fill-17" fill="#FFFFFF"></path><path d="M22.1372275,37.479342 L21.1238378,37.479342 L21.1238378,35.447292 L22.1372275,35.447292 C22.6981638,35.447292 23.1514991,35.9022945 23.1514991,36.463317 C23.1514991,37.0243395 22.6981638,37.479342 22.1372275,37.479342 Z" id="Stroke-19" stroke="#1A1816" stroke-width="0.75" stroke-linecap="round" stroke-linejoin="round"></path><path d="M22.6445397,41.5435304 L21.1231322,41.5435304 L21.1231322,39.5114804 L22.6445397,39.5114804 C23.205476,39.5114804 23.6588113,39.9664829 23.6588113,40.5275054 C23.6588113,41.0885279 23.205476,41.5435304 22.6445397,41.5435304" id="Fill-21" fill="#FFFFFF"></path><path d="M22.6445397,41.5435304 L21.1231322,41.5435304 L21.1231322,39.5114804 L22.6445397,39.5114804 C23.205476,39.5114804 23.6588113,39.9664829 23.6588113,40.5275054 C23.6588113,41.0885279 23.205476,41.5435304 22.6445397,41.5435304 Z" id="Stroke-23" stroke="#1A1816" stroke-width="0.75" stroke-linecap="round" stroke-linejoin="round"></path><path d="M58.1440458,26.8113446 L40.9014285,26.8113446 C39.2212656,26.8113446 37.8586137,28.1754686 37.8586137,29.8594196 L37.8586137,47.1318446 C37.8586137,48.8149121 39.2212656,50.1799196 40.9014285,50.1799196 L58.1440458,50.1799196 C59.8242088,50.1799196 61.1868606,48.8149121 61.1868606,47.1318446 L61.1868606,29.8594196 C61.1868606,28.1754686 59.8242088,26.8113446 58.1440458,26.8113446" id="Fill-25" fill="#FF6242"></path><path d="M58.1440458,26.8113446 L40.9014285,26.8113446 C39.2212656,26.8113446 37.8586137,28.1754686 37.8586137,29.8594196 L37.8586137,47.1318446 C37.8586137,48.8149121 39.2212656,50.1799196 40.9014285,50.1799196 L58.1440458,50.1799196 C59.8242088,50.1799196 61.1868606,48.8149121 61.1868606,47.1318446 L61.1868606,29.8594196 C61.1868606,28.1754686 59.8242088,26.8113446 58.1440458,26.8113446 Z" id="Stroke-27" stroke="#1A1816" stroke-width="0.75" stroke-linecap="round" stroke-linejoin="round"></path><path d="M57.2620705,47.1318446 L41.7834039,47.1318446 C41.2956715,47.1318446 40.9014285,46.7360366 40.9014285,46.2483446 L40.9014285,30.7429196 C40.9014285,30.2543441 41.2956715,29.8594196 41.7834039,29.8594196 L57.2620705,29.8594196 C57.7498029,29.8594196 58.1440458,30.2543441 58.1440458,30.7429196 L58.1440458,46.2483446 C58.1440458,46.7360366 57.7498029,47.1318446 57.2620705,47.1318446" id="Fill-29" fill="#FFFFFF"></path><path d="M57.2620705,47.1318446 L41.7834039,47.1318446 C41.2956715,47.1318446 40.9014285,46.7360366 40.9014285,46.2483446 L40.9014285,30.7429196 C40.9014285,30.2543441 41.2956715,29.8594196 41.7834039,29.8594196 L57.2620705,29.8594196 C57.7498029,29.8594196 58.1440458,30.2543441 58.1440458,30.7429196 L58.1440458,46.2483446 C58.1440458,46.7360366 57.7498029,47.1318446 57.2620705,47.1318446 Z" id="Stroke-31" stroke="#1A1816" stroke-width="0.75" stroke-linecap="round" stroke-linejoin="round"></path><path d="M53.337104,40.4227223 C52.9904877,40.2142163 52.5362704,40.2893138 52.2363988,40.5605483 C51.7865914,40.9678418 51.1903761,41.2152218 50.5368324,41.2152218 C49.0771633,41.2152218 47.9059,39.9800888 48.0073272,38.4958088 C47.9059,37.0115288 49.0771633,35.7755123 50.5368324,35.7755123 C51.1903761,35.7755123 51.7865914,36.0237758 52.2363988,36.4301858 C52.5362704,36.7014203 52.9904877,36.7774013 53.337104,36.5680118 C53.8063149,36.2835248 54.1476393,35.7622598 54.1476393,35.1906353 C54.1476393,33.9740558 51.731027,32.9076713 49.8488917,32.9076713 C46.6385015,32.9076713 44.9583386,35.7984833 44.9583386,38.4958088 C44.9583386,41.1922508 46.6385015,44.0839463 49.8488917,44.0839463 C51.731027,44.0839463 54.1476393,43.0175618 54.1476393,41.8009823 C54.1476393,41.2284743 53.8063149,40.7072093 53.337104,40.4227223" id="Fill-33" fill="#FF6242"></path><path d="M53.337104,40.4227223 C52.9904877,40.2142163 52.5362704,40.2893138 52.2363988,40.5605483 C51.7865914,40.9678418 51.1903761,41.2152218 50.5368324,41.2152218 C49.0771633,41.2152218 47.9059,39.9800888 48.0073272,38.4958088 C47.9059,37.0115288 49.0771633,35.7755123 50.5368324,35.7755123 C51.1903761,35.7755123 51.7865914,36.0237758 52.2363988,36.4301858 C52.5362704,36.7014203 52.9904877,36.7774013 53.337104,36.5680118 C53.8063149,36.2835248 54.1476393,35.7622598 54.1476393,35.1906353 C54.1476393,33.9740558 51.731027,32.9076713 49.8488917,32.9076713 C46.6385015,32.9076713 44.9583386,35.7984833 44.9583386,38.4958088 C44.9583386,41.1922508 46.6385015,44.0839463 49.8488917,44.0839463 C51.731027,44.0839463 54.1476393,43.0175618 54.1476393,41.8009823 C54.1476393,41.2284743 53.8063149,40.7072093 53.337104,40.4227223 Z" id="Stroke-35" stroke="#1A1816" stroke-width="0.75" stroke-linecap="round" stroke-linejoin="round"></path><path d="M44.4519083,3.4425929 L27.2084091,3.4425929 C25.5282461,3.4425929 24.1664762,4.8067169 24.1664762,6.4906679 L24.1664762,23.7630929 C24.1664762,25.4461604 25.5282461,26.8111679 27.2084091,26.8111679 L44.4519083,26.8111679 C46.1320713,26.8111679 47.4938412,25.4461604 47.4938412,23.7630929 L47.4938412,6.4906679 C47.4938412,4.8067169 46.1320713,3.4425929 44.4519083,3.4425929" id="Fill-37" fill="#FFE600"></path><path d="M44.4519083,3.4425929 L27.2084091,3.4425929 C25.5282461,3.4425929 24.1664762,4.8067169 24.1664762,6.4906679 L24.1664762,23.7630929 C24.1664762,25.4461604 25.5282461,26.8111679 27.2084091,26.8111679 L44.4519083,26.8111679 C46.1320713,26.8111679 47.4938412,25.4461604 47.4938412,23.7630929 L47.4938412,6.4906679 C47.4938412,4.8067169 46.1320713,3.4425929 44.4519083,3.4425929 Z" id="Stroke-39" stroke="#1A1816" stroke-width="0.75" stroke-linecap="round" stroke-linejoin="round"></path><path d="M43.569933,23.7630929 L28.0903844,23.7630929 C27.603534,23.7630929 27.2084091,23.3672849 27.2084091,22.8795929 L27.2084091,7.3741679 C27.2084091,6.8864759 27.603534,6.4906679 28.0903844,6.4906679 L43.569933,6.4906679 C44.0567834,6.4906679 44.4519083,6.8864759 44.4519083,7.3741679 L44.4519083,22.8795929 C44.4519083,23.3672849 44.0567834,23.7630929 43.569933,23.7630929" id="Fill-41" fill="#FFFFFF"></path><path d="M43.569933,23.7630929 L28.0903844,23.7630929 C27.603534,23.7630929 27.2084091,23.3672849 27.2084091,22.8795929 L27.2084091,7.3741679 C27.2084091,6.8864759 27.603534,6.4906679 28.0903844,6.4906679 L43.569933,6.4906679 C44.0567834,6.4906679 44.4519083,6.8864759 44.4519083,7.3741679 L44.4519083,22.8795929 C44.4519083,23.3672849 44.0567834,23.7630929 43.569933,23.7630929 Z" id="Stroke-43" stroke="#1A1816" stroke-width="0.75" stroke-linecap="round" stroke-linejoin="round"></path><path d="M38.9377987,20.6445146 C38.0399479,20.6445146 37.3105543,20.1241331 36.9859874,19.2512351 L36.7813691,18.6831446 L35.8305997,18.6831446 L34.8815943,18.6831446 L34.6796219,19.2459341 C34.356819,20.1214826 33.6274254,20.6445146 32.7269286,20.6445146 C31.5856525,20.6445146 30.6913296,19.7778011 30.6913296,18.6698921 C30.6913296,18.3147251 30.7962846,17.9913641 30.9030037,17.6918576 L33.6362451,11.1839966 C34.1645483,9.7014836 35.3472772,9.5389196 35.8305997,9.5389196 C36.3130402,9.5389196 37.4957691,9.7014836 38.033774,11.2096181 L40.7282086,17.5964396 C40.8684427,17.9913641 40.9733977,18.3147251 40.9733977,18.6698921 C40.9733977,19.7778011 40.0790748,20.6445146 38.9377987,20.6445146" id="Fill-45" fill="#FFE600"></path><path d="M38.9377987,20.6445146 C38.0399479,20.6445146 37.3105543,20.1241331 36.9859874,19.2512351 L36.7813691,18.6831446 L35.8305997,18.6831446 L34.8815943,18.6831446 L34.6796219,19.2459341 C34.356819,20.1214826 33.6274254,20.6445146 32.7269286,20.6445146 C31.5856525,20.6445146 30.6913296,19.7778011 30.6913296,18.6698921 C30.6913296,18.3147251 30.7962846,17.9913641 30.9030037,17.6918576 L33.6362451,11.1839966 C34.1645483,9.7014836 35.3472772,9.5389196 35.8305997,9.5389196 C36.3130402,9.5389196 37.4957691,9.7014836 38.033774,11.2096181 L40.7282086,17.5964396 C40.8684427,17.9913641 40.9733977,18.3147251 40.9733977,18.6698921 C40.9733977,19.7778011 40.0790748,20.6445146 38.9377987,20.6445146 Z" id="Stroke-47" stroke="#1A1816" stroke-width="0.75" stroke-linecap="round" stroke-linejoin="round"></path><path d="M35.8302469,14.6187795 L35.8302469,14.110767" id="Stroke-49" stroke="#1A1816" stroke-width="1.5" stroke-linecap="round" stroke-linejoin="round"></path></g></g></g></g></svg>