<svg xmlns="http://www.w3.org/2000/svg" xmlns:xlink= "http://www.w3.org/1999/xlink" viewBox="0 0 72 66"><g id="Final" stroke="none" stroke-width="1" fill="none" fill-rule="evenodd"><g id="Assets" transform="translate(-244.000000, -201.000000)"><g id="Multicolor/Business/67--income-financial-increasing" transform="translate(242.000000, 196.000000)"><g id="67--income-financial-increasing" transform="translate(2.273936, 5.305851)"><path d="M68.8194034,32.5930851 C68.8194034,14.5919242 54.3192187,0 36.4330398,0 C18.5468608,0 4.04667614,14.5919242 4.04667614,32.5930851 C4.04667614,37.3883428 5.08384943,41.9375226 6.93230114,46.0377327 L65.9337784,46.0377327 C67.7814205,41.9375226 68.8194034,37.3883428 68.8194034,32.5930851" id="Fill-1" fill="#E8F4FA"></path><path d="M6.93230114,46.0377327 C12.0210085,57.3279774 23.3117045,65.1861702 36.4330398,65.1861702 C49.554375,65.1861702 60.845071,57.3279774 65.9337784,46.0377327 L6.93230114,46.0377327 Z" id="Fill-3" fill="#FFFFFF"></path><path d="M4.45150568,46.0377327 L67.6049148,46.0377327" id="Stroke-5" stroke="#1A1816" stroke-width="0.9375" stroke-linecap="round" stroke-linejoin="round"></path><path d="M0.808039773,46.0377327 L2.8321875,46.0377327" id="Stroke-7" stroke="#1A1816" stroke-width="0.9375" stroke-linecap="round" stroke-linejoin="round"></path><path d="M69.224233,46.0377327 L71.2483807,46.0377327" id="Stroke-9" stroke="#1A1816" stroke-width="0.9375" stroke-linecap="round" stroke-linejoin="round"></path><path d="M17.4622415,39.1928589 C17.4622415,33.5118842 22.5533778,25.8166568 28.1497415,23.0592818 L33.9784773,23.0592818 C39.5756506,25.8166568 44.6675966,33.5118842 44.6675966,39.1928589 C44.6675966,46.1360009 38.5749119,49.4596807 31.0645142,49.4596807 C23.5541165,49.4596807 17.4622415,46.1360009 17.4622415,39.1928589" id="Fill-11" fill="#FFF5E3"></path><path d="M31.0643523,42.1259106 C24.9854318,42.1259106 19.838429,39.9462481 18.0968523,35.4345503 C17.6944517,36.7325699 17.4620795,38.0069595 17.4620795,39.192533 C17.4620795,46.1356749 23.5547642,49.4593548 31.0643523,49.4593548 C38.57475,49.4593548 44.6674347,46.1356749 44.6674347,39.192533 C44.6674347,38.0069595 44.4350625,36.7325699 44.0326619,35.4345503 C42.2902756,39.9462481 37.1432727,42.1259106 31.0643523,42.1259106" id="Fill-13" fill="#F7E5C6"></path><path d="M17.4622415,39.1928589 C17.4622415,33.5118842 22.5533778,25.8166568 28.1497415,23.0592818 L33.9784773,23.0592818 C39.5756506,25.8166568 44.6675966,33.5118842 44.6675966,39.1928589 C44.6675966,46.1360009 38.5749119,49.4596807 31.0645142,49.4596807 C23.5541165,49.4596807 17.4622415,46.1360009 17.4622415,39.1928589 Z" id="Stroke-15" stroke="#1A1816" stroke-width="0.9375" stroke-linecap="round" stroke-linejoin="round"></path><path d="M31.0643523,23.0594447 C31.0643523,23.0594447 29.8312415,21.7198689 28.5179744,20.3509594 C27.6977898,19.4921316 26.7407727,18.5151539 25.7651335,17.5585468 C25.46475,17.2635794 25.3854034,16.8064614 25.5724347,16.4259371 C25.7586563,16.0470425 26.1667244,15.8311133 26.5828892,15.8914105 C28.0759006,16.1081545 29.5681023,16.2148969 31.0643523,16.2148969 C32.5606023,16.2148969 34.052804,16.1081545 35.5458153,15.8914105 C35.9619801,15.8311133 36.3700483,16.0470425 36.5562699,16.4267519 C36.7424915,16.8064614 36.6647642,17.2635794 36.363571,17.5585468 C35.3879318,18.5151539 34.4309148,19.4921316 33.6107301,20.3509594 C32.2982727,21.7198689 31.0643523,23.0594447 31.0643523,23.0594447" id="Fill-17" fill="#F7E5C6"></path><path d="M25.7912855,17.5848657 C26.0026065,17.3909369 26.2884162,17.2907131 26.5831321,17.3322693 C28.0753338,17.5490133 29.5683452,17.6565705 31.0645952,17.6565705 C32.5600355,17.6565705 34.0530469,17.5490133 35.5460582,17.3322693 C35.8399645,17.2907131 36.1265838,17.3909369 36.3370952,17.5848657 C36.3460014,17.5759026 36.3549077,17.5677544 36.3638139,17.5587913 C36.6650071,17.263009 36.7419247,16.8067058 36.5565128,16.4269964 C36.3694815,16.0464721 35.962223,15.8313577 35.5460582,15.891655 C34.0530469,16.108399 32.5600355,16.2143265 31.0645952,16.2143265 C29.5683452,16.2143265 28.0753338,16.108399 26.5831321,15.891655 C26.1669673,15.8313577 25.7588991,16.0464721 25.5718679,16.4261815 C25.3856463,16.8067058 25.4649929,17.263009 25.7653764,17.5587913 C25.7742827,17.5677544 25.7823793,17.5759026 25.7912855,17.5848657" id="Fill-19" fill="#FFF5E3"></path><path d="M31.0643523,23.0594447 C31.0643523,23.0594447 29.8312415,21.7198689 28.5179744,20.3509594 C27.6977898,19.4921316 26.7407727,18.5151539 25.7651335,17.5585468 C25.46475,17.2635794 25.3854034,16.8064614 25.5724347,16.4259371 C25.7586563,16.0470425 26.1667244,15.8311133 26.5828892,15.8914105 C28.0759006,16.1081545 29.5681023,16.2148969 31.0643523,16.2148969 C32.5606023,16.2148969 34.052804,16.1081545 35.5458153,15.8914105 C35.9619801,15.8311133 36.3700483,16.0470425 36.5562699,16.4267519 C36.7424915,16.8064614 36.6647642,17.2635794 36.363571,17.5585468 C35.3879318,18.5151539 34.4309148,19.4921316 33.6107301,20.3509594 C32.2982727,21.7198689 31.0643523,23.0594447 31.0643523,23.0594447 Z" id="Stroke-21" stroke="#1A1816" stroke-width="0.9375" stroke-linecap="round" stroke-linejoin="round"></path><path d="M31.0643523,45.5483475 C30.447392,45.5483475 29.9445937,45.0431547 29.9445937,44.4222564 L29.9445937,43.8127658 C28.5924631,43.3344622 27.6645938,42.0421464 27.6645938,40.5966431 C27.6645938,39.97493 28.1649631,39.470552 28.7819233,39.470552 C29.3996932,39.470552 29.9016818,39.97493 29.9016818,40.5950134 C29.9016818,41.2411713 30.4239119,41.76592 31.0643523,41.76592 C31.7047926,41.76592 32.2270227,41.2419862 32.2270227,40.5966431 C32.2270227,39.9529297 31.703983,39.4265513 31.062733,39.4257365 C30.1551051,39.4257365 29.3009148,39.0704719 28.6604744,38.4251288 C28.0167955,37.7789709 27.6645938,36.9193283 27.6654034,36.0034626 C27.6645938,34.5587741 28.5916534,33.2664582 29.9445937,32.7889695 L29.9445937,32.1811085 C29.9421648,31.882067 30.057946,31.5993219 30.2676477,31.3858372 C30.4789687,31.1715377 30.7607301,31.0533878 31.0611136,31.0525729 C31.6796932,31.0525729 32.1816818,31.5569509 32.1824915,32.1778492 L32.1824915,32.7857102 C32.6780028,32.9568239 33.1095511,33.2257169 33.4682301,33.5866853 C34.1102898,34.2320284 34.4641108,35.0908562 34.4641108,36.0042774 C34.4641108,36.6251757 33.9621222,37.1303685 33.3451619,37.1303685 C32.7282017,37.1303685 32.2270227,36.6251757 32.2270227,36.0042774 C32.2270227,35.6930134 32.1047642,35.3996757 31.8853466,35.1772279 C31.6651193,34.9564097 31.3744517,34.8358153 31.0659716,34.8358153 C30.4255312,34.8366301 29.9024915,35.3613788 29.9016818,36.005907 C29.9016818,36.3179858 30.0231307,36.6121384 30.2417386,36.8329566 C30.4603466,37.0529599 30.7518239,37.1743691 31.0611136,37.1743691 C32.9370937,37.1759988 34.4641108,38.7111331 34.4649205,40.5966431 C34.4641108,41.5092495 34.1102898,42.3680773 33.4674205,43.0158648 C33.1152187,43.368685 32.6747642,43.6424669 32.1833011,43.8135806 L32.1833011,44.4222564 C32.1833011,44.7229277 32.0667102,45.0064875 31.8561989,45.2191574 C31.6440682,45.4310124 31.3631165,45.5483475 31.0643523,45.5483475" id="Fill-23" fill="#FFE600"></path><path d="M31.0643523,45.5483475 C30.447392,45.5483475 29.9445937,45.0431547 29.9445937,44.4222564 L29.9445937,43.8127658 C28.5924631,43.3344622 27.6645938,42.0421464 27.6645938,40.5966431 C27.6645938,39.97493 28.1649631,39.470552 28.7819233,39.470552 C29.3996932,39.470552 29.9016818,39.97493 29.9016818,40.5950134 C29.9016818,41.2411713 30.4239119,41.76592 31.0643523,41.76592 C31.7047926,41.76592 32.2270227,41.2419862 32.2270227,40.5966431 C32.2270227,39.9529297 31.703983,39.4265513 31.062733,39.4257365 C30.1551051,39.4257365 29.3009148,39.0704719 28.6604744,38.4251288 C28.0167955,37.7789709 27.6645938,36.9193283 27.6654034,36.0034626 C27.6645938,34.5587741 28.5916534,33.2664582 29.9445937,32.7889695 L29.9445937,32.1811085 C29.9421648,31.882067 30.057946,31.5993219 30.2676477,31.3858372 C30.4789687,31.1715377 30.7607301,31.0533878 31.0611136,31.0525729 C31.6796932,31.0525729 32.1816818,31.5569509 32.1824915,32.1778492 L32.1824915,32.7857102 C32.6780028,32.9568239 33.1095511,33.2257169 33.4682301,33.5866853 C34.1102898,34.2320284 34.4641108,35.0908562 34.4641108,36.0042774 C34.4641108,36.6251757 33.9621222,37.1303685 33.3451619,37.1303685 C32.7282017,37.1303685 32.2270227,36.6251757 32.2270227,36.0042774 C32.2270227,35.6930134 32.1047642,35.3996757 31.8853466,35.1772279 C31.6651193,34.9564097 31.3744517,34.8358153 31.0659716,34.8358153 C30.4255312,34.8366301 29.9024915,35.3613788 29.9016818,36.005907 C29.9016818,36.3179858 30.0231307,36.6121384 30.2417386,36.8329566 C30.4603466,37.0529599 30.7518239,37.1743691 31.0611136,37.1743691 C32.9370937,37.1759988 34.4641108,38.7111331 34.4649205,40.5966431 C34.4641108,41.5092495 34.1102898,42.3680773 33.4674205,43.0158648 C33.1152187,43.368685 32.6747642,43.6424669 32.1833011,43.8135806 L32.1833011,44.4222564 C32.1833011,44.7229277 32.0667102,45.0064875 31.8561989,45.2191574 C31.6440682,45.4310124 31.3631165,45.5483475 31.0643523,45.5483475 Z" id="Stroke-25" stroke="#1A1816" stroke-width="0.9375" stroke-linecap="round" stroke-linejoin="round"></path><path d="M33.2054957,20.7780918 C33.4775412,20.5621626 34.1544162,19.9697832 34.4361776,19.8426702 C36.135652,19.0498434 36.9137344,19.4222194 37.2440753,20.1555638 C37.5841321,20.8889082 37.3501406,21.7200319 35.6506662,22.502266 C34.6491179,22.9618285 33.2605526,23.0596077 32.2695298,23.0596077 L31.0639474,23.0596077 C31.0639474,23.0596077 32.8354815,21.1683939 33.2054957,20.7780918 Z" id="Stroke-27" stroke="#1A1816" stroke-width="0.9375" stroke-linecap="round" stroke-linejoin="round"></path><path d="M31.0643523,23.0594447 C31.4529886,23.4016721 34.1831591,25.9439328 33.9596932,28.9465707" id="Stroke-29" stroke="#1A1816" stroke-width="0.9375" stroke-linecap="round" stroke-linejoin="round"></path><path d="M28.9232088,20.7780918 C28.6511634,20.5621626 27.9742884,19.9697832 27.692527,19.8426702 C25.9930526,19.0498434 25.2149702,19.4222194 24.8846293,20.1555638 C24.5445724,20.8889082 24.7785639,21.7200319 26.4780384,22.502266 C27.4795866,22.9618285 28.868152,23.0596077 29.8591747,23.0596077 L31.0647571,23.0596077 C31.0647571,23.0596077 29.293223,21.1683939 28.9232088,20.7780918 Z" id="Stroke-31" stroke="#1A1816" stroke-width="0.9375" stroke-linecap="round" stroke-linejoin="round"></path><path d="M31.0643523,23.0594447 C30.6757159,23.4016721 27.9455455,25.9439328 28.1690114,28.9465707" id="Stroke-33" stroke="#1A1816" stroke-width="0.9375" stroke-linecap="round" stroke-linejoin="round"></path><path d="M59.2655881,51.9038362 C59.2655881,52.4440666 56.6552472,52.8816287 53.4360426,52.8816287 C50.2160284,52.8816287 47.6064972,52.4440666 47.6064972,51.9038362 C47.6064972,51.3644206 50.2160284,50.9268584 53.4360426,50.9268584 C56.6552472,50.9268584 59.2655881,51.3644206 59.2655881,51.9038362" id="Fill-35" fill="#020202" opacity="0.15"></path><path d="M27.6888835,51.9038362 C27.6888835,52.7145892 23.9911705,53.3713398 19.4303608,53.3713398 C14.8687415,53.3713398 11.1718381,52.7145892 11.1718381,51.9038362 C11.1718381,51.0947128 14.8687415,50.4371473 19.4303608,50.4371473 C23.9911705,50.4371473 27.6888835,51.0947128 27.6888835,51.9038362" id="Fill-37" fill="#020202" opacity="0.15"></path><path d="M47.1207017,51.9038362 C47.1207017,52.7145892 43.2051903,53.3713398 38.3755739,53.3713398 C33.5459574,53.3713398 29.6312557,52.7145892 29.6312557,51.9038362 C29.6312557,51.0947128 33.5459574,50.4371473 38.3755739,50.4371473 C43.2051903,50.4371473 47.1207017,51.0947128 47.1207017,51.9038362" id="Fill-39" fill="#020202" opacity="0.15"></path><path d="M58.2938352,32.3479851 C58.2938352,31.5388618 57.64125,30.8812963 56.8364489,30.8812963 L51.9784943,30.8812963 C51.1736932,30.8812963 50.5202983,31.5388618 50.5202983,32.3479851 C50.5202983,33.1579233 51.1736932,33.8154888 51.9784943,33.8154888 L56.8364489,33.8154888 C57.64125,33.8154888 58.2938352,33.1579233 58.2938352,32.3479851" id="Fill-41" fill="#FFE600"></path><path d="M51.9786562,32.2437687 L56.8366108,32.2437687 C57.3968949,32.2437687 57.8826903,32.563181 58.1272074,33.0300769 C58.2332727,32.8263701 58.2939972,32.5949592 58.2939972,32.3488814 C58.2939972,31.5389433 57.6414119,30.8813778 56.8366108,30.8813778 L51.9786562,30.8813778 C51.1738551,30.8813778 50.5204602,31.5389433 50.5204602,32.3488814 C50.5204602,32.5949592 50.5811847,32.8263701 50.68725,33.0300769 C50.931767,32.563181 51.4183722,32.2437687 51.9786562,32.2437687" id="Fill-43" fill="#FFFACF"></path><path d="M58.2938352,32.3479851 C58.2938352,31.5388618 57.64125,30.8812963 56.8364489,30.8812963 L51.9784943,30.8812963 C51.1736932,30.8812963 50.5202983,31.5388618 50.5202983,32.3479851 C50.5202983,33.1579233 51.1736932,33.8154888 51.9784943,33.8154888 L56.8364489,33.8154888 C57.64125,33.8154888 58.2938352,33.1579233 58.2938352,32.3479851 Z" id="Stroke-45" stroke="#1A1816" stroke-width="0.9375" stroke-linecap="round" stroke-linejoin="round"></path><path d="M60.3804886,11.0487299 C60.2428466,10.7016136 59.9408438,10.4473875 59.5764972,10.3716086 C59.2129602,10.2950148 58.8348494,10.4090906 58.5717102,10.6722798 C57.0819375,12.1601541 54.6213835,13.2569114 52.7672642,13.4272103 C52.4199205,13.4598034 52.107392,13.6545471 51.9244091,13.9527738 C51.7414261,14.2526302 51.7082301,14.620932 51.8361563,14.9468629 L52.6814403,17.1045251 C52.8709006,17.586088 53.363983,17.8729071 53.8732585,17.7971282 C55.9767528,17.4850494 58.5765682,16.4111072 60.3974915,15.0959763 C61.122946,14.5712276 61.4014688,13.6162502 61.0703182,12.7818672 L60.3804886,11.0487299 Z" id="Fill-47" fill="#6DD627"></path><path d="M60.3804886,11.0487299 C60.2428466,10.7016136 59.9408438,10.4473875 59.5764972,10.3716086 C59.2129602,10.2950148 58.8348494,10.4090906 58.5717102,10.6722798 C57.0819375,12.1601541 54.6213835,13.2569114 52.7672642,13.4272103 C52.4199205,13.4598034 52.107392,13.6545471 51.9244091,13.9527738 C51.7414261,14.2526302 51.7082301,14.620932 51.8361563,14.9468629 L52.6814403,17.1045251 C52.8709006,17.586088 53.363983,17.8729071 53.8732585,17.7971282 C55.9767528,17.4850494 58.5765682,16.4111072 60.3974915,15.0959763 C61.122946,14.5712276 61.4014688,13.6162502 61.0703182,12.7818672 L60.3804886,11.0487299 Z" id="Stroke-49" stroke="#1A1816" stroke-width="0.9375" stroke-linejoin="round"></path><path d="M57.4320341,14.5379826 C57.4320341,14.9991748 57.0595909,15.3739953 56.6013239,15.3739953 C56.1414375,15.3739953 55.769804,14.9991748 55.769804,14.5379826 C55.769804,14.0759757 56.1414375,13.70197 56.6013239,13.70197 C57.0595909,13.70197 57.4320341,14.0759757 57.4320341,14.5379826" id="Fill-51" fill="#C8FFA1"></path><path d="M55.8988636,23.7199436 C55.7207386,24.0483189 55.7183097,24.4451398 55.8923864,24.7759596 C56.0672727,25.1059646 56.3935653,25.3267827 56.7643892,25.3634499 C58.8525,25.5696012 61.2604261,26.7788047 62.5728835,28.1077877 C62.8190199,28.3571248 63.1671733,28.4752747 63.5128977,28.4263851 C63.8586222,28.3783103 64.1614347,28.1688997 64.3298437,27.8608951 L65.4423153,25.8311607 C65.6916903,25.3764872 65.5969602,24.811812 65.2139915,24.4646956 C63.6351562,23.0322295 61.1543608,21.700802 58.9869034,21.1271637 C58.1238068,20.8981973 57.2145597,21.2917588 56.7870597,22.0805114 L55.8988636,23.7199436 Z" id="Fill-53" fill="#6DD627"></path><path d="M55.8988636,23.7199436 C55.7207386,24.0483189 55.7183097,24.4451398 55.8923864,24.7759596 C56.0672727,25.1059646 56.3935653,25.3267827 56.7643892,25.3634499 C58.8525,25.5696012 61.2604261,26.7788047 62.5728835,28.1077877 C62.8190199,28.3571248 63.1671733,28.4752747 63.5128977,28.4263851 C63.8586222,28.3783103 64.1614347,28.1688997 64.3298437,27.8608951 L65.4423153,25.8311607 C65.6916903,25.3764872 65.5969602,24.811812 65.2139915,24.4646956 C63.6351562,23.0322295 61.1543608,21.700802 58.9869034,21.1271637 C58.1238068,20.8981973 57.2145597,21.2917588 56.7870597,22.0805114 L55.8988636,23.7199436 Z" id="Stroke-55" stroke="#1A1816" stroke-width="0.9375" stroke-linejoin="round"></path><path d="M60.4500384,23.7827668 C60.8038594,23.4886142 61.3277088,23.5375038 61.6199957,23.8943981 C61.9130923,24.2504776 61.8628935,24.7776707 61.5098821,25.0718233 C61.1560611,25.3659759 60.6322116,25.3162714 60.3391151,24.960192 C60.0468281,24.6041125 60.0962173,24.0769194 60.4500384,23.7827668" id="Fill-57" fill="#C8FFA1"></path><path d="M12.765571,36.4412692 C12.3834119,37.3856538 12.8311534,38.5027818 13.7582131,38.9175288 C31.3027159,46.7520917 45.5656705,31.0446691 49.891679,25.6268835 L51.8551023,27.359206 C52.1611534,27.6305435 52.6429006,27.4243922 52.6607131,27.0137193 L52.9206136,21.1257785 C52.9335682,20.8348852 52.6922898,20.5969557 52.4040511,20.6165115 L46.1907273,21.0231103 C45.7640369,21.0508144 45.578625,21.5820817 45.894392,21.8721601 L48.1379574,23.9353024 C41.4590795,30.7431831 29.5392784,40.3190315 16.1709972,33.661079 C15.150017,33.1526269 13.9152869,33.5975225 13.4869773,34.6584274 L12.765571,36.4412692 Z" id="Fill-59" fill="#FF6242"></path><path d="M12.765571,36.4412692 C12.3834119,37.3856538 12.8311534,38.5027818 13.7582131,38.9175288 C31.3027159,46.7520917 45.5656705,31.0446691 49.891679,25.6268835 L51.8551023,27.359206 C52.1611534,27.6305435 52.6429006,27.4243922 52.6607131,27.0137193 L52.9206136,21.1257785 C52.9335682,20.8348852 52.6922898,20.5969557 52.4040511,20.6165115 L46.1907273,21.0231103 C45.7640369,21.0508144 45.578625,21.5820817 45.894392,21.8721601 L48.1379574,23.9353024 C41.4590795,30.7431831 29.5392784,40.3190315 16.1709972,33.661079 C15.150017,33.1526269 13.9152869,33.5975225 13.4869773,34.6584274 L12.765571,36.4412692 Z" id="Stroke-61" stroke="#1A1816" stroke-width="0.9375" stroke-linecap="round" stroke-linejoin="round"></path><path d="M45.5923082,17.2458162 L47.7484304,16.5214348 C47.8310156,16.4945455 47.8860724,16.4163221 47.8860724,16.3291356 C47.8860724,16.2411343 47.8310156,16.1629109 47.7484304,16.1360216 L45.9760866,15.5411978 C45.7339986,15.4605299 45.5445384,15.2690455 45.4635724,15.0254122 L44.873331,13.2425705 C44.8458026,13.1594581 44.7680753,13.103235 44.6814418,13.103235 C44.5939986,13.103235 44.5162713,13.1594581 44.4887429,13.2425705 L43.8985014,15.0254122 C43.8183452,15.2690455 43.6280753,15.4605299 43.3859872,15.540383 L41.6128338,16.1360216 C41.5302486,16.1629109 41.4751918,16.2411343 41.4751918,16.3291356 C41.4751918,16.4163221 41.5302486,16.4945455 41.6128338,16.5214348 L43.3859872,17.1170735 C43.6280753,17.1977414 43.8175355,17.3892257 43.8985014,17.632859 L44.4887429,19.4165156 C44.5162713,19.499628 44.5939986,19.5558511 44.6814418,19.5558511 C44.7680753,19.5558511 44.8458026,19.5004428 44.873331,19.4165156 L45.5923082,17.2458162 Z" id="Fill-63" fill="#FFEC60"></path><path d="M45.5923082,17.2458162 L47.7484304,16.5214348 C47.8310156,16.4945455 47.8860724,16.4163221 47.8860724,16.3291356 C47.8860724,16.2411343 47.8310156,16.1629109 47.7484304,16.1360216 L45.9760866,15.5411978 C45.7339986,15.4605299 45.5445384,15.2690455 45.4635724,15.0254122 L44.873331,13.2425705 C44.8458026,13.1594581 44.7680753,13.103235 44.6814418,13.103235 C44.5939986,13.103235 44.5162713,13.1594581 44.4887429,13.2425705 L43.8985014,15.0254122 C43.8183452,15.2690455 43.6280753,15.4605299 43.3859872,15.540383 L41.6128338,16.1360216 C41.5302486,16.1629109 41.4751918,16.2411343 41.4751918,16.3291356 C41.4751918,16.4163221 41.5302486,16.4945455 41.6128338,16.5214348 L43.3859872,17.1170735 C43.6280753,17.1977414 43.8175355,17.3892257 43.8985014,17.632859 L44.4887429,19.4165156 C44.5162713,19.499628 44.5939986,19.5558511 44.6814418,19.5558511 C44.7680753,19.5558511 44.8458026,19.5004428 44.873331,19.4165156 L45.5923082,17.2458162 Z" id="Stroke-65" stroke="#1A1816" stroke-width="0.9375" stroke-linecap="round" stroke-linejoin="round"></path><path d="M17.2428239,27.9460445 C17.3820852,27.3389983 17.8533068,26.8655837 18.4565028,26.7246187 L20.8919574,26.1591286 C20.9842585,26.1379431 21.0490312,26.0556456 21.0490312,25.9603108 C21.0490312,25.8657909 20.9842585,25.7834933 20.8919574,25.7623078 L18.4565028,25.1968178 C17.8524972,25.0566675 17.3820852,24.5824381 17.2428239,23.9753919 L16.6809205,21.5252067 C16.6590597,21.4331313 16.5772841,21.3679451 16.4833636,21.3679451 C16.3894432,21.3679451 16.3076676,21.4331313 16.2858068,21.5252067 L15.7247131,23.9753919 C15.5854517,24.5824381 15.1142301,25.0566675 14.5102244,25.1968178 L12.0763892,25.7623078 C11.9840881,25.7834933 11.9193153,25.8657909 11.9193153,25.9603108 C11.9193153,26.0556456 11.9840881,26.1379431 12.0763892,26.1591286 L14.5102244,26.7246187 C15.1142301,26.8647689 15.5854517,27.3389983 15.7247131,27.9460445 L16.2858068,30.3978593 C16.3076676,30.4899348 16.3886335,30.5559358 16.4833636,30.5559358 C16.5772841,30.5559358 16.6590597,30.4899348 16.6809205,30.3978593 L17.2428239,27.9460445 Z" id="Fill-67" fill="#FFEC60"></path><path d="M17.2428239,27.9460445 C17.3820852,27.3389983 17.8533068,26.8655837 18.4565028,26.7246187 L20.8919574,26.1591286 C20.9842585,26.1379431 21.0490312,26.0556456 21.0490312,25.9603108 C21.0490312,25.8657909 20.9842585,25.7834933 20.8919574,25.7623078 L18.4565028,25.1968178 C17.8524972,25.0566675 17.3820852,24.5824381 17.2428239,23.9753919 L16.6809205,21.5252067 C16.6590597,21.4331313 16.5772841,21.3679451 16.4833636,21.3679451 C16.3894432,21.3679451 16.3076676,21.4331313 16.2858068,21.5252067 L15.7247131,23.9753919 C15.5854517,24.5824381 15.1142301,25.0566675 14.5102244,25.1968178 L12.0763892,25.7623078 C11.9840881,25.7834933 11.9193153,25.8657909 11.9193153,25.9603108 C11.9193153,26.0556456 11.9840881,26.1379431 12.0763892,26.1591286 L14.5102244,26.7246187 C15.1142301,26.8647689 15.5854517,27.3389983 15.7247131,27.9460445 L16.2858068,30.3978593 C16.3076676,30.4899348 16.3886335,30.5559358 16.4833636,30.5559358 C16.5772841,30.5559358 16.6590597,30.4899348 16.6809205,30.3978593 L17.2428239,27.9460445 Z" id="Stroke-69" stroke="#1A1816" stroke-width="0.9375" stroke-linecap="round" stroke-linejoin="round"></path><path d="M56.3504105,35.2818517 C56.3504105,34.4719135 55.6978253,33.814348 54.8930241,33.814348 L50.0350696,33.814348 C49.2302685,33.814348 48.5768736,34.4719135 48.5768736,35.2818517 C48.5768736,36.0917898 49.2302685,36.7493553 50.0350696,36.7493553 L54.8930241,36.7493553 C55.6978253,36.7493553 56.3504105,36.0917898 56.3504105,35.2818517" id="Fill-71" fill="#FFE600"></path><path d="M50.0352315,35.1776353 L54.8931861,35.1776353 C55.4534702,35.1776353 55.9392656,35.4962327 56.1837827,35.9631286 C56.289848,35.7594218 56.3505724,35.5280109 56.3505724,35.2819331 C56.3505724,34.471995 55.6979872,33.8152443 54.8931861,33.8152443 L50.0352315,33.8152443 C49.2304304,33.8152443 48.5770355,34.471995 48.5770355,35.2819331 C48.5770355,35.5280109 48.6377599,35.7594218 48.7438253,35.9631286 C48.9883423,35.4962327 49.4749474,35.1776353 50.0352315,35.1776353" id="Fill-73" fill="#FFFACF"></path><path d="M56.3504105,35.2818517 C56.3504105,34.4719135 55.6978253,33.814348 54.8930241,33.814348 L50.0350696,33.814348 C49.2302685,33.814348 48.5768736,34.4719135 48.5768736,35.2818517 C48.5768736,36.0917898 49.2302685,36.7493553 50.0350696,36.7493553 L54.8930241,36.7493553 C55.6978253,36.7493553 56.3504105,36.0917898 56.3504105,35.2818517 Z" id="Stroke-75" stroke="#1A1816" stroke-width="0.9375" stroke-linecap="round" stroke-linejoin="round"></path><path d="M58.2938352,38.2149034 C58.2938352,37.4049652 57.64125,36.7473997 56.8364489,36.7473997 L51.9784943,36.7473997 C51.1736932,36.7473997 50.5202983,37.4049652 50.5202983,38.2149034 C50.5202983,39.0248416 51.1736932,39.6815922 51.9784943,39.6815922 L56.8364489,39.6815922 C57.64125,39.6815922 58.2938352,39.0248416 58.2938352,38.2149034" id="Fill-77" fill="#FFE600"></path><path d="M51.9786562,38.110687 L56.8366108,38.110687 C57.3968949,38.110687 57.8826903,38.4292844 58.1272074,38.8961804 C58.2332727,38.6924736 58.2939972,38.4610627 58.2939972,38.2149849 C58.2939972,37.4050467 57.6414119,36.748296 56.8366108,36.748296 L51.9786562,36.748296 C51.1738551,36.748296 50.5204602,37.4050467 50.5204602,38.2149849 C50.5204602,38.4610627 50.5811847,38.6924736 50.68725,38.8961804 C50.931767,38.4292844 51.4183722,38.110687 51.9786562,38.110687" id="Fill-79" fill="#FFFACF"></path><path d="M58.2938352,38.2149034 C58.2938352,37.4049652 57.64125,36.7473997 56.8364489,36.7473997 L51.9784943,36.7473997 C51.1736932,36.7473997 50.5202983,37.4049652 50.5202983,38.2149034 C50.5202983,39.0248416 51.1736932,39.6815922 51.9784943,39.6815922 L56.8364489,39.6815922 C57.64125,39.6815922 58.2938352,39.0248416 58.2938352,38.2149034 Z" id="Stroke-81" stroke="#1A1816" stroke-width="0.9375" stroke-linecap="round" stroke-linejoin="round"></path><path d="M56.3504105,41.1487699 C56.3504105,40.3388318 55.6978253,39.6812663 54.8930241,39.6812663 L50.0350696,39.6812663 C49.2302685,39.6812663 48.5768736,40.3388318 48.5768736,41.1487699 C48.5768736,41.9587081 49.2302685,42.6162736 50.0350696,42.6162736 L54.8930241,42.6162736 C55.6978253,42.6162736 56.3504105,41.9587081 56.3504105,41.1487699" id="Fill-83" fill="#FFE600"></path><path d="M50.0352315,41.0445536 L54.8931861,41.0445536 C55.4534702,41.0445536 55.9392656,41.363151 56.1837827,41.8300469 C56.289848,41.6263401 56.3505724,41.3949292 56.3505724,41.1488514 C56.3505724,40.3389133 55.6979872,39.6821626 54.8931861,39.6821626 L50.0352315,39.6821626 C49.2304304,39.6821626 48.5770355,40.3389133 48.5770355,41.1488514 C48.5770355,41.3949292 48.6377599,41.6263401 48.7438253,41.8300469 C48.9883423,41.363151 49.4749474,41.0445536 50.0352315,41.0445536" id="Fill-85" fill="#FFFACF"></path><path d="M56.3504105,41.1487699 C56.3504105,40.3388318 55.6978253,39.6812663 54.8930241,39.6812663 L50.0350696,39.6812663 C49.2302685,39.6812663 48.5768736,40.3388318 48.5768736,41.1487699 C48.5768736,41.9587081 49.2302685,42.6162736 50.0350696,42.6162736 L54.8930241,42.6162736 C55.6978253,42.6162736 56.3504105,41.9587081 56.3504105,41.1487699 Z" id="Stroke-87" stroke="#1A1816" stroke-width="0.9375" stroke-linecap="round" stroke-linejoin="round"></path><path d="M44.6917244,41.1487699 C44.6917244,40.3388318 44.0391392,39.6812663 43.2343381,39.6812663 L38.3763835,39.6812663 C37.5715824,39.6812663 36.9181875,40.3388318 36.9181875,41.1487699 C36.9181875,41.9587081 37.5715824,42.6162736 38.3763835,42.6162736 L43.2343381,42.6162736 C44.0391392,42.6162736 44.6917244,41.9587081 44.6917244,41.1487699" id="Fill-89" fill="#FFE600"></path><path d="M38.3765455,41.0445536 L43.2345,41.0445536 C43.7947841,41.0445536 44.2805795,41.363151 44.5250966,41.8300469 C44.6311619,41.6263401 44.6918864,41.3949292 44.6918864,41.1488514 C44.6918864,40.3389133 44.0393011,39.6821626 43.2345,39.6821626 L38.3765455,39.6821626 C37.5717443,39.6821626 36.9183494,40.3389133 36.9183494,41.1488514 C36.9183494,41.3949292 36.9790739,41.6263401 37.0851392,41.8300469 C37.3296562,41.363151 37.8162614,41.0445536 38.3765455,41.0445536" id="Fill-91" fill="#FFFACF"></path><path d="M44.6917244,41.1487699 C44.6917244,40.3388318 44.0391392,39.6812663 43.2343381,39.6812663 L38.3763835,39.6812663 C37.5715824,39.6812663 36.9181875,40.3388318 36.9181875,41.1487699 C36.9181875,41.9587081 37.5715824,42.6162736 38.3763835,42.6162736 L43.2343381,42.6162736 C44.0391392,42.6162736 44.6917244,41.9587081 44.6917244,41.1487699 Z" id="Stroke-93" stroke="#1A1816" stroke-width="0.9375" stroke-linecap="round" stroke-linejoin="round"></path><path d="M45.6627486,44.0818217 C45.6627486,43.2718835 45.0101634,42.614318 44.2053622,42.614318 L39.3474077,42.614318 C38.5426065,42.614318 37.8892116,43.2718835 37.8892116,44.0818217 C37.8892116,44.8917598 38.5426065,45.5485105 39.3474077,45.5485105 L44.2053622,45.5485105 C45.0101634,45.5485105 45.6627486,44.8917598 45.6627486,44.0818217" id="Fill-95" fill="#FFE600"></path><path d="M39.3475696,43.9776053 L44.2055241,43.9776053 C44.7658082,43.9776053 45.2516037,44.2962027 45.4961207,44.7630986 C45.6021861,44.5593919 45.6629105,44.327981 45.6629105,44.0819032 C45.6629105,43.271965 45.0103253,42.6152143 44.2055241,42.6152143 L39.3475696,42.6152143 C38.5427685,42.6152143 37.8893736,43.271965 37.8893736,44.0819032 C37.8893736,44.327981 37.950098,44.5593919 38.0561634,44.7630986 C38.3006804,44.2962027 38.7872855,43.9776053 39.3475696,43.9776053" id="Fill-97" fill="#FFFACF"></path><path d="M45.6627486,44.0818217 C45.6627486,43.2718835 45.0101634,42.614318 44.2053622,42.614318 L39.3474077,42.614318 C38.5426065,42.614318 37.8892116,43.2718835 37.8892116,44.0818217 C37.8892116,44.8917598 38.5426065,45.5485105 39.3474077,45.5485105 L44.2053622,45.5485105 C45.0101634,45.5485105 45.6627486,44.8917598 45.6627486,44.0818217 Z" id="Stroke-99" stroke="#1A1816" stroke-width="0.9375" stroke-linecap="round" stroke-linejoin="round"></path><path d="M37.8903452,44.0818217 C37.8903452,43.2718835 37.2377599,42.614318 36.4329588,42.614318 L31.5750043,42.614318 C30.7702031,42.614318 30.1168082,43.2718835 30.1168082,44.0818217 C30.1168082,44.8917598 30.7702031,45.5485105 31.5750043,45.5485105 L36.4329588,45.5485105 C37.2377599,45.5485105 37.8903452,44.8917598 37.8903452,44.0818217" id="Fill-101" fill="#FFE600"></path><path d="M31.5750852,43.9776053 L36.4330398,43.9776053 C36.9933239,43.9776053 37.4791193,44.2962027 37.7236364,44.7630986 C37.8297017,44.5593919 37.8904261,44.327981 37.8904261,44.0819032 C37.8904261,43.271965 37.2378409,42.6152143 36.4330398,42.6152143 L31.5750852,42.6152143 C30.7702841,42.6152143 30.1168892,43.271965 30.1168892,44.0819032 C30.1168892,44.327981 30.1776136,44.5593919 30.283679,44.7630986 C30.528196,44.2962027 31.0148011,43.9776053 31.5750852,43.9776053" id="Fill-103" fill="#FFFACF"></path><path d="M37.8903452,44.0818217 C37.8903452,43.2718835 37.2377599,42.614318 36.4329588,42.614318 L31.5750043,42.614318 C30.7702031,42.614318 30.1168082,43.2718835 30.1168082,44.0818217 C30.1168082,44.8917598 30.7702031,45.5485105 31.5750043,45.5485105 L36.4329588,45.5485105 C37.2377599,45.5485105 37.8903452,44.8917598 37.8903452,44.0818217 Z" id="Stroke-105" stroke="#1A1816" stroke-width="0.9375" stroke-linecap="round" stroke-linejoin="round"></path><path d="M39.8337699,47.0148734 C39.8337699,46.2057501 39.1811847,45.5481846 38.3763835,45.5481846 L33.518429,45.5481846 C32.7136278,45.5481846 32.060233,46.2057501 32.060233,47.0148734 C32.060233,47.8248116 32.7136278,48.4823771 33.518429,48.4823771 L38.3763835,48.4823771 C39.1811847,48.4823771 39.8337699,47.8248116 39.8337699,47.0148734" id="Fill-107" fill="#FFE600"></path><path d="M33.5185909,46.910657 L38.3765455,46.910657 C38.9368295,46.910657 39.422625,47.2300692 39.667142,47.6969652 C39.7732074,47.4932584 39.8339318,47.2618475 39.8339318,47.0157697 C39.8339318,46.2058315 39.1813466,45.5482661 38.3765455,45.5482661 L33.5185909,45.5482661 C32.7137898,45.5482661 32.0603949,46.2058315 32.0603949,47.0157697 C32.0603949,47.2618475 32.1211193,47.4932584 32.2271847,47.6969652 C32.4717017,47.2300692 32.9583068,46.910657 33.5185909,46.910657" id="Fill-109" fill="#FFFACF"></path><path d="M39.8337699,47.0148734 C39.8337699,46.2057501 39.1811847,45.5481846 38.3763835,45.5481846 L33.518429,45.5481846 C32.7136278,45.5481846 32.060233,46.2057501 32.060233,47.0148734 C32.060233,47.8248116 32.7136278,48.4823771 33.518429,48.4823771 L38.3763835,48.4823771 C39.1811847,48.4823771 39.8337699,47.8248116 39.8337699,47.0148734 Z" id="Stroke-111" stroke="#1A1816" stroke-width="0.9375" stroke-linecap="round" stroke-linejoin="round"></path><path d="M37.8910739,49.94874 C37.8910739,49.1388018 37.2384886,48.4812363 36.4336875,48.4812363 L31.575733,48.4812363 C30.7709318,48.4812363 30.1175369,49.1388018 30.1175369,49.94874 C30.1175369,50.7586781 30.7709318,51.4162436 31.575733,51.4162436 L36.4336875,51.4162436 C37.2384886,51.4162436 37.8910739,50.7586781 37.8910739,49.94874" id="Fill-113" fill="#FFE600"></path><path d="M31.5758949,49.8445236 L36.4338494,49.8445236 C36.9941335,49.8445236 37.479929,50.163121 37.724446,50.6300169 C37.8305114,50.4263101 37.8912358,50.1948992 37.8912358,49.9488214 C37.8912358,49.1388833 37.2386506,48.4821326 36.4338494,48.4821326 L31.5758949,48.4821326 C30.7710937,48.4821326 30.1176989,49.1388833 30.1176989,49.9488214 C30.1176989,50.1948992 30.1784233,50.4263101 30.2844886,50.6300169 C30.5290057,50.163121 31.0156108,49.8445236 31.5758949,49.8445236" id="Fill-115" fill="#FFFACF"></path><path d="M37.8910739,49.94874 C37.8910739,49.1388018 37.2384886,48.4812363 36.4336875,48.4812363 L31.575733,48.4812363 C30.7709318,48.4812363 30.1175369,49.1388018 30.1175369,49.94874 C30.1175369,50.7586781 30.7709318,51.4162436 31.575733,51.4162436 L36.4336875,51.4162436 C37.2384886,51.4162436 37.8910739,50.7586781 37.8910739,49.94874 Z" id="Stroke-117" stroke="#1A1816" stroke-width="0.9375" stroke-linecap="round" stroke-linejoin="round"></path><path d="M47.6062543,47.0148734 C47.6062543,46.2057501 46.953669,45.5481846 46.1488679,45.5481846 L41.2909134,45.5481846 C40.4861122,45.5481846 39.8327173,46.2057501 39.8327173,47.0148734 C39.8327173,47.8248116 40.4861122,48.4823771 41.2909134,48.4823771 L46.1488679,48.4823771 C46.953669,48.4823771 47.6062543,47.8248116 47.6062543,47.0148734" id="Fill-119" fill="#FFE600"></path><path d="M41.2909943,46.910657 L46.1489489,46.910657 C46.709233,46.910657 47.1950284,47.2300692 47.4395455,47.6969652 C47.5456108,47.4932584 47.6063352,47.2618475 47.6063352,47.0157697 C47.6063352,46.2058315 46.95375,45.5482661 46.1489489,45.5482661 L41.2909943,45.5482661 C40.4861932,45.5482661 39.8327983,46.2058315 39.8327983,47.0157697 C39.8327983,47.2618475 39.8935227,47.4932584 39.9995881,47.6969652 C40.2441051,47.2300692 40.7307102,46.910657 41.2909943,46.910657" id="Fill-121" fill="#FFFACF"></path><path d="M47.6062543,47.0148734 C47.6062543,46.2057501 46.953669,45.5481846 46.1488679,45.5481846 L41.2909134,45.5481846 C40.4861122,45.5481846 39.8327173,46.2057501 39.8327173,47.0148734 C39.8327173,47.8248116 40.4861122,48.4823771 41.2909134,48.4823771 L46.1488679,48.4823771 C46.953669,48.4823771 47.6062543,47.8248116 47.6062543,47.0148734 Z" id="Stroke-123" stroke="#1A1816" stroke-width="0.9375" stroke-linecap="round" stroke-linejoin="round"></path><path d="M45.6627486,49.94874 C45.6627486,49.1388018 45.0101634,48.4812363 44.2053622,48.4812363 L39.3474077,48.4812363 C38.5426065,48.4812363 37.8892116,49.1388018 37.8892116,49.94874 C37.8892116,50.7586781 38.5426065,51.4162436 39.3474077,51.4162436 L44.2053622,51.4162436 C45.0101634,51.4162436 45.6627486,50.7586781 45.6627486,49.94874" id="Fill-125" fill="#FFE600"></path><path d="M39.3475696,49.8445236 L44.2055241,49.8445236 C44.7658082,49.8445236 45.2516037,50.163121 45.4961207,50.6300169 C45.6021861,50.4263101 45.6629105,50.1948992 45.6629105,49.9488214 C45.6629105,49.1388833 45.0103253,48.4821326 44.2055241,48.4821326 L39.3475696,48.4821326 C38.5427685,48.4821326 37.8893736,49.1388833 37.8893736,49.9488214 C37.8893736,50.1948992 37.950098,50.4263101 38.0561634,50.6300169 C38.3006804,50.163121 38.7872855,49.8445236 39.3475696,49.8445236" id="Fill-127" fill="#FFFACF"></path><path d="M45.6627486,49.94874 C45.6627486,49.1388018 45.0101634,48.4812363 44.2053622,48.4812363 L39.3474077,48.4812363 C38.5426065,48.4812363 37.8892116,49.1388018 37.8892116,49.94874 C37.8892116,50.7586781 38.5426065,51.4162436 39.3474077,51.4162436 L44.2053622,51.4162436 C45.0101634,51.4162436 45.6627486,50.7586781 45.6627486,49.94874 Z" id="Stroke-129" stroke="#1A1816" stroke-width="0.9375" stroke-linecap="round" stroke-linejoin="round"></path><path d="M58.2938352,44.0818217 C58.2938352,43.2718835 57.64125,42.614318 56.8364489,42.614318 L51.9784943,42.614318 C51.1736932,42.614318 50.5202983,43.2718835 50.5202983,44.0818217 C50.5202983,44.8917598 51.1736932,45.5485105 51.9784943,45.5485105 L56.8364489,45.5485105 C57.64125,45.5485105 58.2938352,44.8917598 58.2938352,44.0818217" id="Fill-131" fill="#FFE600"></path><path d="M51.9786562,43.9776053 L56.8366108,43.9776053 C57.3968949,43.9776053 57.8826903,44.2962027 58.1272074,44.7630986 C58.2332727,44.5593919 58.2939972,44.327981 58.2939972,44.0819032 C58.2939972,43.271965 57.6414119,42.6152143 56.8366108,42.6152143 L51.9786562,42.6152143 C51.1738551,42.6152143 50.5204602,43.271965 50.5204602,44.0819032 C50.5204602,44.327981 50.5811847,44.5593919 50.68725,44.7630986 C50.931767,44.2962027 51.4183722,43.9776053 51.9786562,43.9776053" id="Fill-133" fill="#FFFACF"></path><path d="M58.2938352,44.0818217 C58.2938352,43.2718835 57.64125,42.614318 56.8364489,42.614318 L51.9784943,42.614318 C51.1736932,42.614318 50.5202983,43.2718835 50.5202983,44.0818217 C50.5202983,44.8917598 51.1736932,45.5485105 51.9784943,45.5485105 L56.8364489,45.5485105 C57.64125,45.5485105 58.2938352,44.8917598 58.2938352,44.0818217 Z" id="Stroke-135" stroke="#1A1816" stroke-width="0.9375" stroke-linecap="round" stroke-linejoin="round"></path><path d="M56.3504105,47.0148734 C56.3504105,46.2057501 55.6978253,45.5481846 54.8930241,45.5481846 L50.0350696,45.5481846 C49.2302685,45.5481846 48.5768736,46.2057501 48.5768736,47.0148734 C48.5768736,47.8248116 49.2302685,48.4823771 50.0350696,48.4823771 L54.8930241,48.4823771 C55.6978253,48.4823771 56.3504105,47.8248116 56.3504105,47.0148734" id="Fill-137" fill="#FFE600"></path><path d="M50.0352315,46.910657 L54.8931861,46.910657 C55.4534702,46.910657 55.9392656,47.2300692 56.1837827,47.6969652 C56.289848,47.4932584 56.3505724,47.2618475 56.3505724,47.0157697 C56.3505724,46.2058315 55.6979872,45.5482661 54.8931861,45.5482661 L50.0352315,45.5482661 C49.2304304,45.5482661 48.5770355,46.2058315 48.5770355,47.0157697 C48.5770355,47.2618475 48.6377599,47.4932584 48.7438253,47.6969652 C48.9883423,47.2300692 49.4749474,46.910657 50.0352315,46.910657" id="Fill-139" fill="#FFFACF"></path><path d="M56.3504105,47.0148734 C56.3504105,46.2057501 55.6978253,45.5481846 54.8930241,45.5481846 L50.0350696,45.5481846 C49.2302685,45.5481846 48.5768736,46.2057501 48.5768736,47.0148734 C48.5768736,47.8248116 49.2302685,48.4823771 50.0350696,48.4823771 L54.8930241,48.4823771 C55.6978253,48.4823771 56.3504105,47.8248116 56.3504105,47.0148734 Z" id="Stroke-141" stroke="#1A1816" stroke-width="0.9375" stroke-linecap="round" stroke-linejoin="round"></path><path d="M57.3221634,49.94874 C57.3221634,49.1388018 56.6695781,48.4812363 55.864777,48.4812363 L51.0068224,48.4812363 C50.2020213,48.4812363 49.5486264,49.1388018 49.5486264,49.94874 C49.5486264,50.7586781 50.2020213,51.4162436 51.0068224,51.4162436 L55.864777,51.4162436 C56.6695781,51.4162436 57.3221634,50.7586781 57.3221634,49.94874" id="Fill-143" fill="#FFE600"></path><path d="M51.0069034,49.8445236 L55.864858,49.8445236 C56.425142,49.8445236 56.9109375,50.163121 57.1554545,50.6300169 C57.2615199,50.4263101 57.3222443,50.1948992 57.3222443,49.9488214 C57.3222443,49.1388833 56.6696591,48.4821326 55.864858,48.4821326 L51.0069034,48.4821326 C50.2021023,48.4821326 49.5487074,49.1388833 49.5487074,49.9488214 C49.5487074,50.1948992 49.6094318,50.4263101 49.7154972,50.6300169 C49.9600142,50.163121 50.4466193,49.8445236 51.0069034,49.8445236" id="Fill-145" fill="#FFFACF"></path><path d="M57.3221634,49.94874 C57.3221634,49.1388018 56.6695781,48.4812363 55.864777,48.4812363 L51.0068224,48.4812363 C50.2020213,48.4812363 49.5486264,49.1388018 49.5486264,49.94874 C49.5486264,50.7586781 50.2020213,51.4162436 51.0068224,51.4162436 L55.864777,51.4162436 C56.6695781,51.4162436 57.3221634,50.7586781 57.3221634,49.94874 Z" id="Stroke-147" stroke="#1A1816" stroke-width="0.9375" stroke-linecap="round" stroke-linejoin="round"></path><path d="M25.2599062,47.0148734 C25.2599062,46.2057501 24.607321,45.5481846 23.8025199,45.5481846 L18.9445653,45.5481846 C18.1397642,45.5481846 17.4863693,46.2057501 17.4863693,47.0148734 C17.4863693,47.8248116 18.1397642,48.4823771 18.9445653,48.4823771 L23.8025199,48.4823771 C24.607321,48.4823771 25.2599062,47.8248116 25.2599062,47.0148734" id="Fill-149" fill="#FFE600"></path><path d="M18.9447273,46.910657 L23.8026818,46.910657 C24.3629659,46.910657 24.8487614,47.2300692 25.0932784,47.6969652 C25.1993437,47.4932584 25.2600682,47.2618475 25.2600682,47.0157697 C25.2600682,46.2058315 24.607483,45.5482661 23.8026818,45.5482661 L18.9447273,45.5482661 C18.1399261,45.5482661 17.4865312,46.2058315 17.4865312,47.0157697 C17.4865312,47.2618475 17.5472557,47.4932584 17.653321,47.6969652 C17.8978381,47.2300692 18.3844432,46.910657 18.9447273,46.910657" id="Fill-151" fill="#FFFACF"></path><path d="M25.2599062,47.0148734 C25.2599062,46.2057501 24.607321,45.5481846 23.8025199,45.5481846 L18.9445653,45.5481846 C18.1397642,45.5481846 17.4863693,46.2057501 17.4863693,47.0148734 C17.4863693,47.8248116 18.1397642,48.4823771 18.9445653,48.4823771 L23.8025199,48.4823771 C24.607321,48.4823771 25.2599062,47.8248116 25.2599062,47.0148734 Z" id="Stroke-153" stroke="#1A1816" stroke-width="0.9375" stroke-linecap="round" stroke-linejoin="round"></path><path d="M27.2026832,49.94874 C27.2026832,49.1388018 26.550098,48.4812363 25.7452969,48.4812363 L20.8873423,48.4812363 C20.0825412,48.4812363 19.4291463,49.1388018 19.4291463,49.94874 C19.4291463,50.7586781 20.0825412,51.4162436 20.8873423,51.4162436 L25.7452969,51.4162436 C26.550098,51.4162436 27.2026832,50.7586781 27.2026832,49.94874" id="Fill-155" fill="#FFE600"></path><path d="M20.8875043,49.8445236 L25.7454588,49.8445236 C26.3057429,49.8445236 26.7915384,50.163121 27.0360554,50.6300169 C27.1421207,50.4263101 27.2028452,50.1948992 27.2028452,49.9488214 C27.2028452,49.1388833 26.5502599,48.4821326 25.7454588,48.4821326 L20.8875043,48.4821326 C20.0827031,48.4821326 19.4293082,49.1388833 19.4293082,49.9488214 C19.4293082,50.1948992 19.4900327,50.4263101 19.596098,50.6300169 C19.8406151,50.163121 20.3272202,49.8445236 20.8875043,49.8445236" id="Fill-157" fill="#FFFACF"></path><path d="M27.2026832,49.94874 C27.2026832,49.1388018 26.550098,48.4812363 25.7452969,48.4812363 L20.8873423,48.4812363 C20.0825412,48.4812363 19.4291463,49.1388018 19.4291463,49.94874 C19.4291463,50.7586781 20.0825412,51.4162436 20.8873423,51.4162436 L25.7452969,51.4162436 C26.550098,51.4162436 27.2026832,50.7586781 27.2026832,49.94874 Z" id="Stroke-159" stroke="#1A1816" stroke-width="0.9375" stroke-linecap="round" stroke-linejoin="round"></path><path d="M19.4301989,49.94874 C19.4301989,49.1388018 18.7776136,48.4812363 17.9728125,48.4812363 L13.114858,48.4812363 C12.3100568,48.4812363 11.6566619,49.1388018 11.6566619,49.94874 C11.6566619,50.7586781 12.3100568,51.4162436 13.114858,51.4162436 L17.9728125,51.4162436 C18.7776136,51.4162436 19.4301989,50.7586781 19.4301989,49.94874" id="Fill-161" fill="#FFE600"></path><path d="M13.1150199,49.8445236 L17.9729744,49.8445236 C18.5332585,49.8445236 19.019054,50.163121 19.263571,50.6300169 C19.3696364,50.4263101 19.4303608,50.1948992 19.4303608,49.9488214 C19.4303608,49.1388833 18.7777756,48.4821326 17.9729744,48.4821326 L13.1150199,48.4821326 C12.3102187,48.4821326 11.6568239,49.1388833 11.6568239,49.9488214 C11.6568239,50.1948992 11.7175483,50.4263101 11.8236136,50.6300169 C12.0681307,50.163121 12.5547358,49.8445236 13.1150199,49.8445236" id="Fill-163" fill="#FFFACF"></path><path d="M19.4301989,49.94874 C19.4301989,49.1388018 18.7776136,48.4812363 17.9728125,48.4812363 L13.114858,48.4812363 C12.3100568,48.4812363 11.6566619,49.1388018 11.6566619,49.94874 C11.6566619,50.7586781 12.3100568,51.4162436 13.114858,51.4162436 L17.9728125,51.4162436 C18.7776136,51.4162436 19.4301989,50.7586781 19.4301989,49.94874 Z" id="Stroke-165" stroke="#1A1816" stroke-width="0.9375" stroke-linecap="round" stroke-linejoin="round"></path></g></g></g></g></svg>