<svg xmlns="http://www.w3.org/2000/svg" xmlns:xlink= "http://www.w3.org/1999/xlink" viewBox="0 0 71 72"><g id="Final" stroke="none" stroke-width="1" fill="none" fill-rule="evenodd"><g id="Assets" transform="translate(-245.000000, -292.000000)"><g id="Multicolor/Legal/04--law-document" transform="translate(242.000000, 290.000000)"><path d="M73.7028015,37.7577214 C73.7028015,57.2414379 57.9083877,73.0367337 38.4237891,73.0367337 C18.9400726,73.0367337 3.14477679,57.2414379 3.14477679,37.7577214 C3.14477679,18.2731229 18.9400726,2.47870904 38.4237891,2.47870904 C57.9083877,2.47870904 73.7028015,18.2731229 73.7028015,37.7577214" id="Fill-1" fill="#E8F4FA"></path><path d="M57.0864749,62.8395998 C57.0864749,63.8062447 48.7297588,64.5894388 38.4238773,64.5894388 C28.1153499,64.5894388 19.7612798,63.8062447 19.7612798,62.8395998 C19.7612798,61.8729549 28.1153499,61.0897608 38.4238773,61.0897608 C48.7297588,61.0897608 57.0864749,61.8729549 57.0864749,62.8395998" id="Fill-67" fill-opacity="0.15" fill="#020202"></path><g id="04--law-document" stroke-width="1" transform="translate(20.520000, 17.480000)"><path d="M0,39.52 C2.45895596,39.52 4.45154424,37.5188017 4.45154424,35.0492204 L4.45154424,5.99077957 C4.45154424,3.52119835 6.44413252,1.52 8.90308848,1.52 L31.16,1.52 C28.701044,1.52 26.7084558,3.52119835 26.7084558,5.99077957 L26.7084558,35.0492204 C26.7084558,37.5188017 24.7150578,39.52 22.2569115,39.52 L0,39.52 Z" id="Fill-11" fill="#FFFFFF"></path><path d="M26.6,5.8630341 C26.6,3.32334325 28.8882939,1.29317047 31.607872,1.54042497 C33.9782757,1.75608146 35.72,3.78151454 35.72,6.04946241 L35.72,8.21550668 C35.72,8.71475539 35.2945216,9.12 34.7695162,9.12 L26.6,9.12 L26.6,5.8630341 Z" id="Fill-13" fill="#DAEDF7"></path><path d="M26.6,5.8630341 C26.6,3.32334325 28.8882939,1.29317047 31.607872,1.54042497 C33.9782757,1.75608146 35.72,3.78151454 35.72,6.04946241 L35.72,8.21550668 C35.72,8.71475539 35.2945216,9.12 34.7695162,9.12 L26.6,9.12 L26.6,5.8630341 Z" id="Stroke-15" stroke="#1A1816" stroke-width="0.76" stroke-linejoin="round"></path><path d="M4.43346773,34.96 L4.43346773,35.1423363 C4.43346773,37.5596857 2.44897081,39.52 0,39.52 L22.1665323,39.52 C24.6146967,39.52 26.6,37.5596857 26.6,35.1423363 L26.6,34.96 L4.43346773,34.96 Z" id="Fill-17" fill="#E8F4FA"></path><path d="M0,39.52 L0,39.52 C2.45895596,39.52 4.45154424,37.5188017 4.45154424,35.0492204 L4.45154424,5.99077957 C4.45154424,3.52119835 6.44413252,1.52 8.90308848,1.52 L31.16,1.52 C28.701044,1.52 26.7084558,3.52119835 26.7084558,5.99077957 L26.7084558,35.0492204 C26.7084558,37.5188017 24.7150578,39.52 22.2569115,39.52 L0,39.52 Z" id="Stroke-25" stroke="#1A1816" stroke-width="0.76" stroke-linejoin="round"></path><path d="M14.44,10.64 L23.56,10.64" id="Stroke-27" stroke="#1A1816" stroke-width="0.76" stroke-linecap="round" stroke-linejoin="round"></path><path d="M14.44,15.2 L23.56,15.2" id="Stroke-29" stroke="#1A1816" stroke-width="0.76" stroke-linecap="round" stroke-linejoin="round"></path><polygon id="Fill-31" fill="#FFE600" points="3.47417399 10.64 2.28 20.52 6.46 18.0502022 10.64 20.52 9.44582601 10.64"></polygon><path d="M14.44,19.76 L19.76,19.76" id="Stroke-33" stroke="#1A1816" stroke-width="0.76" stroke-linecap="round" stroke-linejoin="round"></path><path d="M8.36,24.32 L18.24,24.32" id="Stroke-35" stroke="#1A1816" stroke-width="0.76" stroke-linecap="round" stroke-linejoin="round"></path><path d="M8.36,28.12 L15.96,28.12" id="Stroke-37" stroke="#1A1816" stroke-width="0.76" stroke-linecap="round" stroke-linejoin="round"></path><path d="M8.36,32.68 L15.96,32.68" id="Stroke-39" stroke="#1A1816" stroke-width="0.76" stroke-linecap="round" stroke-linejoin="round"></path><path d="M10.0605749,10.64 L3.62026856,10.64 L3.04,15.0224411 C3.59918322,15.0001467 4.19885029,14.9237087 4.62140051,15.088528 C5.38131617,15.3863174 5.96664521,16.72 6.84042171,16.72 C7.71335479,16.72 8.29952724,15.3863174 9.0594429,15.088528 C9.48114971,14.9237087 10.0816602,15.0009429 10.64,15.0224411 L10.0605749,10.64 Z" id="Fill-41" fill="#EBCB00"></path><polygon id="Stroke-43" stroke="#1A1816" stroke-width="0.76" stroke-linejoin="round" points="3.47417399 10.64 2.28 20.52 6.46 18.0502022 10.64 20.52 9.44582601 10.64"></polygon><path d="M13.68,6.84 C13.68,7.68370044 12.315909,8.24888201 12.0121443,8.98264079 C11.6969782,9.74245982 12.2491297,11.1041076 11.6766186,11.6766186 C11.1032932,12.249944 9.74245982,11.6969782 8.98182641,12.0121443 C8.24888201,12.3167234 7.68288606,13.68 6.84,13.68 C5.99629956,13.68 5.43111799,12.3167234 4.69735921,12.0121443 C3.93754018,11.6969782 2.57589237,12.249944 2.00256697,11.6766186 C1.43005596,11.1041076 1.98302179,9.74245982 1.6678557,8.98264079 C1.36327658,8.24888201 0,7.68370044 0,6.84 C0,5.99711394 1.36327658,5.43111799 1.6678557,4.69817359 C1.98302179,3.93835457 1.43005596,2.57589237 2.00338135,2.00338135 C2.57589237,1.43005596 3.93754018,1.98302179 4.69735921,1.6678557 C5.43111799,1.36409096 5.99629956,0 6.84,0 C7.68288606,0 8.24888201,1.36409096 8.98182641,1.6678557 C9.74245982,1.98302179 11.1041076,1.43087034 11.6766186,2.00338135 C12.249944,2.57589237 11.6969782,3.93835457 12.0121443,4.69817359 C12.315909,5.43111799 13.68,5.99711394 13.68,6.84" id="Fill-45" fill="#FF6242"></path><path d="M13.68,6.84 C13.68,7.68370044 12.315909,8.24888201 12.0121443,8.98264079 C11.6969782,9.74245982 12.2491297,11.1041076 11.6766186,11.6766186 C11.1032932,12.249944 9.74245982,11.6969782 8.98182641,12.0121443 C8.24888201,12.3167234 7.68288606,13.68 6.84,13.68 C5.99629956,13.68 5.43111799,12.3167234 4.69735921,12.0121443 C3.93754018,11.6969782 2.57589237,12.249944 2.00256697,11.6766186 C1.43005596,11.1041076 1.98302179,9.74245982 1.6678557,8.98264079 C1.36327658,8.24888201 0,7.68370044 0,6.84 C0,5.99711394 1.36327658,5.43111799 1.6678557,4.69817359 C1.98302179,3.93835457 1.43005596,2.57589237 2.00338135,2.00338135 C2.57589237,1.43005596 3.93754018,1.98302179 4.69735921,1.6678557 C5.43111799,1.36409096 5.99629956,0 6.84,0 C7.68288606,0 8.24888201,1.36409096 8.98182641,1.6678557 C9.74245982,1.98302179 11.1041076,1.43087034 11.6766186,2.00338135 C12.249944,2.57589237 11.6969782,3.93835457 12.0121443,4.69817359 C12.315909,5.43111799 13.68,5.99711394 13.68,6.84 Z" id="Stroke-47" stroke="#1A1816" stroke-width="0.76" stroke-linejoin="round"></path><path d="M9.88,6.84 C9.88,8.51924568 8.51924568,9.88 6.84,9.88 C5.16075432,9.88 3.8,8.51924568 3.8,6.84 C3.8,5.16155055 5.16075432,3.8 6.84,3.8 C8.51924568,3.8 9.88,5.16155055 9.88,6.84" id="Fill-49" fill="#FFFFFF"></path><path d="M9.88,6.84 C9.88,8.51924568 8.51924568,9.88 6.84,9.88 C5.16075432,9.88 3.8,8.51924568 3.8,6.84 C3.8,5.16155055 5.16075432,3.8 6.84,3.8 C8.51924568,3.8 9.88,5.16155055 9.88,6.84 Z" id="Stroke-51" stroke="#1A1816" stroke-width="0.76" stroke-linejoin="round"></path></g></g></g></g></svg>