<svg xmlns="http://www.w3.org/2000/svg" xmlns:xlink= "http://www.w3.org/1999/xlink" viewBox="0 0 71 71"><g id="Final" stroke="none" stroke-width="1" fill="none" fill-rule="evenodd"><g id="Assets" transform="translate(-142.000000, -292.000000)"><g id="01--package-box-hand" transform="translate(140.000000, 290.000000)"><g><rect id="Rectangle-5" x="0" y="0" width="76" height="76"></rect><path d="M72.84096,37.8432 C72.84096,57.1551522 57.1715879,72.8112 37.8432,72.8112 C18.5148121,72.8112 2.84544,57.1551522 2.84544,37.8432 C2.84544,18.5312478 18.5148121,2.8752 37.8432,2.8752 C57.1715879,2.8752 72.84096,18.5312478 72.84096,37.8432" id="Fill-1" fill="#E8F4FA"></path><path d="M72.84096,37.8432 C72.84096,57.1551522 57.1715879,72.8112 37.8432,72.8112 C18.5148121,72.8112 2.84544,57.1551522 2.84544,37.8432 C2.84544,18.5312478 18.5148121,2.8752 37.8432,2.8752 C57.1715879,2.8752 72.84096,18.5312478 72.84096,37.8432" id="Fill-3" fill="#E8F4FA"></path><path d="M54.943018,63.5441555 C54.943018,64.4611913 48.0055871,65.2025129 39.4477598,65.2025129 C30.8899325,65.2025129 23.9525016,64.4611913 23.9525016,63.5441555 C23.9525016,62.6271197 30.8899325,61.8849239 39.4477598,61.8849239 C48.0055871,61.8849239 54.943018,62.6271197 54.943018,63.5441555" id="Fill-5" fill-opacity="0.15" fill="#020202"></path><path d="M42.3358625,38.0378843 L21.5069456,38.0378843 C21.0239765,38.0378843 20.6320016,37.6462427 20.6320016,37.1636843 L20.6320016,17.6795147 C20.6320016,17.1960821 21.0239765,16.8053147 21.5069456,16.8053147 L42.3358625,16.8053147 C42.8188315,16.8053147 43.2108065,17.1960821 43.2108065,17.6795147 L43.2108065,37.1636843 C43.2108065,37.6462427 42.8188315,38.0378843 42.3358625,38.0378843" id="Fill-7" fill="#F0D5A8"></path><path d="M20.6318266,26.0672889 L29.9018583,16.8051399 L21.7386308,16.8051399 C21.1270449,16.8051399 20.6318266,17.3008113 20.6318266,17.9110029 L20.6318266,26.0672889 Z" id="Fill-9" fill="#FFF5E3"></path><path d="M42.3358625,38.0378843 L21.5069456,38.0378843 C21.0239765,38.0378843 20.6320016,37.6462427 20.6320016,37.1636843 L20.6320016,17.6795147 C20.6320016,17.1960821 21.0239765,16.8053147 21.5069456,16.8053147 L42.3358625,16.8053147 C42.8188315,16.8053147 43.2108065,17.1960821 43.2108065,17.6795147 L43.2108065,37.1636843 C43.2108065,37.6462427 42.8188315,38.0378843 42.3358625,38.0378843 Z" id="Stroke-11" stroke="#1A1816" stroke-width="0.744" stroke-linecap="round" stroke-linejoin="round"></path><polygon id="Fill-13" fill="#FFFFFF" points="28.6002916 24.7677906 35.2411165 24.7677906 35.2411165 16.805577 28.6002916 16.805577"></polygon><polygon id="Stroke-15" stroke="#1A1816" stroke-width="0.744" stroke-linecap="round" stroke-linejoin="round" points="28.6002916 24.7677906 35.2411165 24.7677906 35.2411165 16.805577 28.6002916 16.805577"></polygon><polyline id="Stroke-16" stroke="#1A1816" stroke-width="0.744" stroke-linecap="round" stroke-linejoin="round" points="23.9521516 32.7299168 25.9443991 30.7393634 27.9366466 32.7299168"></polyline><path d="M25.9443116,30.7397131 L25.9443116,35.3834635" id="Stroke-17" stroke="#1A1816" stroke-width="0.744" stroke-linecap="round" stroke-linejoin="round"></path><polyline id="Stroke-18" stroke="#1A1816" stroke-width="0.744" stroke-linecap="round" stroke-linejoin="round" points="29.2646366 32.7299168 31.2568841 30.7393634 33.2491315 32.7299168"></polyline><path d="M31.2567966,30.7397131 L31.2567966,35.3834635" id="Stroke-19" stroke="#1A1816" stroke-width="0.744" stroke-linecap="round" stroke-linejoin="round"></path><path d="M17.4024958,44.8011326 C17.6851027,44.8011326 17.9720843,44.855333 18.2485666,44.9698532 L28.2229282,48.999041 C28.6192779,49.1590196 29.0418758,49.2411944 29.4697234,49.2411944 L30.4820336,49.2411944 C29.2597369,49.2411944 28.2684253,48.2507258 28.2684253,47.0294684 C28.2684253,45.808211 29.2597369,44.8177424 30.4820336,44.8177424 L34.7613847,44.8177424 C38.3267815,44.8177424 37.492085,40.9467848 43.7636836,40.9467848 L49.8515439,40.9467848 L49.8515439,53.1331328 C48.2180235,53.1226424 46.7708661,53.0273546 44.7427459,53.7424502 L42.2911528,54.607034 C40.2429089,55.3291232 38.0966713,55.6927904 35.945184,55.6927904 C34.5496483,55.6927904 33.1506128,55.5398054 31.7760758,55.232087 C31.1504909,55.184006 17.1618862,49.3076336 16.55555,49.0567382 C15.7033545,48.7044356 15.1880125,47.880065 15.1880125,47.0119844 C15.1880125,45.8055884 16.1679498,44.8011326 17.4024958,44.8011326" id="Fill-20" fill="#FFCEBF"></path><path d="M44.6979488,43.2968967 C38.4263502,43.2968967 39.2601718,47.1669801 35.694775,47.1669801 L31.4162988,47.1669801 C30.3681159,47.1669801 29.4905471,47.8960629 29.2613118,48.8734185 C28.663725,48.4782801 28.2691253,47.7999009 28.2691253,47.0297307 C28.2691253,45.8075991 29.2595619,44.8180047 30.4827336,44.8180047 L34.7612098,44.8180047 C38.3266066,44.8180047 37.4927849,40.9470471 43.7643835,40.9470471 L49.8513689,40.9470471 L49.8513689,43.2968967 L44.6979488,43.2968967 Z" id="Fill-21" fill="#FFDCD1"></path><path d="M15.18775,47.0122467 C15.18775,45.8058507 16.1685623,44.8013949 17.4022333,44.8013949 C17.6848402,44.8013949 17.9718218,44.8547211 18.2483042,44.9701155 L18.2491791,44.9701155 L18.2491791,44.9701155 L28.2226658,48.9984291 C28.6190154,49.1584077 29.0424883,49.2414567 29.469461,49.2414567 L40.0982807,49.2414567 C40.0982807,50.3744199 39.1970883,51.3036945 38.0640359,51.3404109 C28.3985295,51.6542487 27.8026926,51.2320101 19.1547461,47.3654235 C18.8782638,47.2500291 18.5912822,47.1958287 18.3086753,47.1958287 C17.2797411,47.1958287 16.4354202,47.8986855 16.1808115,48.8305827 C16.1650625,48.8288343 16.1501884,48.8279601 16.1344394,48.8270859 C15.5368527,48.4100925 15.18775,47.7264681 15.18775,47.0122467" id="Fill-22" fill="#FFDCD1"></path><g id="Group-25" transform="translate(29.968704, 49.207800)"><path d="M0.513504634,0.03330702 L9.92177747,0.03330702" id="Fill-23" fill="#FFCEBF"></path><path d="M0.513504634,0.03330702 L9.92177747,0.03330702" id="Stroke-24" stroke="#1A1816" stroke-width="0.744" stroke-linecap="round"></path></g><path d="M17.4024958,44.8011326 C17.6851027,44.8011326 17.9720843,44.855333 18.2485666,44.9698532 L28.2229282,48.999041 C28.6192779,49.1590196 29.0418758,49.2411944 29.4697234,49.2411944 L30.4820336,49.2411944 C29.2597369,49.2411944 28.2684253,48.2507258 28.2684253,47.0294684 C28.2684253,45.808211 29.2597369,44.8177424 30.4820336,44.8177424 L34.7613847,44.8177424 C38.3267815,44.8177424 37.492085,40.9467848 43.7636836,40.9467848 L49.8515439,40.9467848 L49.8515439,53.1331328 C48.2180235,53.1226424 46.7708661,53.0273546 44.7427459,53.7424502 L42.2911528,54.607034 C40.2429089,55.3291232 38.0966713,55.6927904 35.945184,55.6927904 C34.5496483,55.6927904 33.1506128,55.5398054 31.7760758,55.232087 C31.1504909,55.184006 17.1618862,49.3076336 16.55555,49.0567382 C15.7033545,48.7044356 15.1880125,47.880065 15.1880125,47.0119844 C15.1880125,45.8055884 16.1679498,44.8011326 17.4024958,44.8011326 Z" id="Stroke-26" stroke="#1A1816" stroke-width="0.744" stroke-linecap="round" stroke-linejoin="round"></path><path d="M54.0467254,55.3451211 L60.0444665,55.3451211 C60.5274356,55.3451211 60.9194105,54.9534795 60.9194105,54.4709211 L60.9194105,39.0788817 C60.9194105,38.5954491 60.5274356,38.2046817 60.0444665,38.2046817 L54.0467254,38.2046817 C53.5637563,38.2046817 53.1717814,38.5954491 53.1717814,39.0788817 L53.1717814,54.4709211 C53.1717814,54.9534795 53.5637563,55.3451211 54.0467254,55.3451211" id="Fill-27" fill="#009FD9"></path><path d="M54.0467254,55.3451211 L60.0444665,55.3451211 C60.5274356,55.3451211 60.9194105,54.9534795 60.9194105,54.4709211 L60.9194105,39.0788817 C60.9194105,38.5954491 60.5274356,38.2046817 60.0444665,38.2046817 L54.0467254,38.2046817 C53.5637563,38.2046817 53.1717814,38.5954491 53.1717814,39.0788817 L53.1717814,54.4709211 C53.1717814,54.9534795 53.5637563,55.3451211 54.0467254,55.3451211 Z" id="Stroke-28" stroke="#1A1816" stroke-width="0.744" stroke-linejoin="round"></path><path d="M53.1717814,39.3101076 C53.1717814,38.699916 53.6669997,38.2042446 54.2785856,38.2042446 L59.8126064,38.2042446 C60.4241922,38.2042446 60.9194105,38.699916 60.9194105,39.3101076 L60.9194105,40.968465 L53.1717814,40.968465 L53.1717814,39.3101076 Z" id="Fill-29" fill="#00B8F0"></path><path d="M54.0467254,55.3451211 L60.0444665,55.3451211 C60.5274356,55.3451211 60.9194105,54.9534795 60.9194105,54.4709211 L60.9194105,39.0788817 C60.9194105,38.5954491 60.5274356,38.2046817 60.0444665,38.2046817 L54.0467254,38.2046817 C53.5637563,38.2046817 53.1717814,38.5954491 53.1717814,39.0788817 L53.1717814,54.4709211 C53.1717814,54.9534795 53.5637563,55.3451211 54.0467254,55.3451211 Z" id="Stroke-30" stroke="#1A1816" stroke-width="0.744" stroke-linejoin="round"></path><path d="M53.1717814,54.2391707 L50.7263129,54.2391707 C50.2433438,54.2391707 49.8513689,53.8475291 49.8513689,53.3649707 L49.8513689,40.1846573 C49.8513689,39.7012247 50.2433438,39.3104573 50.7263129,39.3104573 L53.1717814,39.3104573 L53.1717814,54.2391707 Z" id="Fill-31" fill="#FFFFFF"></path><path d="M53.1717814,54.2391707 L50.7263129,54.2391707 C50.2433438,54.2391707 49.8513689,53.8475291 49.8513689,53.3649707 L49.8513689,40.1846573 C49.8513689,39.7012247 50.2433438,39.3104573 50.7263129,39.3104573 L53.1717814,39.3104573 L53.1717814,54.2391707 Z" id="Stroke-32" stroke="#1A1816" stroke-width="0.744" stroke-linecap="round" stroke-linejoin="round"></path></g></g></g></g></svg>