<svg xmlns="http://www.w3.org/2000/svg" xmlns:xlink= "http://www.w3.org/1999/xlink" viewBox="0 0 73 67"><g id="Final" stroke="none" stroke-width="1" fill="none" fill-rule="evenodd"><g id="Assets" transform="translate(-441.000000, -200.000000)"><g id="Multicolor/Business/50--business-graph-2" transform="translate(440.000000, 196.000000)"><g id="50--business-graph-2" transform="translate(2.273936, 4.926862)"><path d="M68.112571,32.5733973 C68.112571,14.5885554 53.613196,0.00838549054 35.7262074,0.00838549054 C17.8392188,0.00838549054 3.33984375,14.5885554 3.33984375,32.5733973 C3.33984375,37.3645247 4.37701705,41.9097862 6.22546875,46.0064647 L65.226946,46.0064647 C67.0753977,41.9097862 68.112571,37.3645247 68.112571,32.5733973" id="Fill-1" fill="#E8F4FA"></path><path d="M6.22587358,46.0064647 C11.314581,57.2869848 22.6044673,65.1384091 35.7266122,65.1384091 C48.8479474,65.1384091 60.1378338,57.2869848 65.2265412,46.0064647 L6.22587358,46.0064647 Z" id="Fill-3" fill="#FFFFFF"></path><path d="M3.7446733,46.0064647 L66.8980824,46.0064647" id="Stroke-5" stroke="#1A1816" stroke-width="0.9375" stroke-linecap="round" stroke-linejoin="round"></path><path d="M0.101207386,46.0064647 L2.12535511,46.0064647" id="Stroke-7" stroke="#1A1816" stroke-width="0.9375" stroke-linecap="round" stroke-linejoin="round"></path><path d="M68.5174006,46.0064647 L70.5415483,46.0064647" id="Stroke-9" stroke="#1A1816" stroke-width="0.9375" stroke-linecap="round" stroke-linejoin="round"></path><path d="M50.6891122,38.493635 L15.4244105,38.493635 C13.8148082,38.493635 12.5104474,37.1812651 12.5104474,35.562784 L12.5104474,10.1213685 C12.5104474,8.50288741 13.8148082,7.19051743 15.4244105,7.19051743 L50.6891122,7.19051743 C52.2987145,7.19051743 53.6038849,8.50288741 53.6038849,10.1213685 L53.6038849,35.562784 C53.6038849,37.1812651 52.2987145,38.493635 50.6891122,38.493635" id="Fill-11" fill="#00B8F0"></path><path d="M49.8675511,7.19035461 L43.3425085,7.19035461 C42.7401222,8.52796247 42.396017,10.0080423 42.396017,11.5727911 C42.396017,17.4507757 47.1357614,22.2158511 52.9815,22.2158511 C53.1912017,22.2158511 53.3960455,22.1963121 53.6033182,22.1841002 L53.6033182,10.9467287 C53.6033182,8.87152335 51.9313722,7.19035461 49.8675511,7.19035461" id="Fill-13" fill="#009FD9"></path><path d="M16.2461335,7.19035461 C14.1823125,7.19035461 12.5103665,8.87152335 12.5103665,10.9467287 L12.5103665,30.980724 C12.5103665,31.110984 12.5354659,31.2347311 12.5484205,31.3609205 L36.5863892,7.19035461 L16.2461335,7.19035461 Z" id="Fill-15" fill="#4ACFFF"></path><path d="M50.6891122,38.493635 L15.4244105,38.493635 C13.8148082,38.493635 12.5104474,37.1812651 12.5104474,35.562784 L12.5104474,10.1213685 C12.5104474,8.50288741 13.8148082,7.19051743 15.4244105,7.19051743 L50.6891122,7.19051743 C52.2987145,7.19051743 53.6038849,8.50288741 53.6038849,10.1213685 L53.6038849,35.562784 C53.6038849,37.1812651 52.2987145,38.493635 50.6891122,38.493635 Z" id="Stroke-17" stroke="#1A1816" stroke-width="0.9375" stroke-linecap="round" stroke-linejoin="round"></path><polygon id="Fill-19" fill="#E0E0E0" points="36.7928523 43.5020525 29.3205085 43.5020525 29.943946 38.4935536 36.1694148 38.4935536"></polygon><polygon id="Fill-21" fill="#87898C" points="36.4038111 40.3719849 29.7095497 40.3719849 29.9435412 38.4937979 36.1698196 38.4937979"></polygon><polygon id="Stroke-23" stroke="#1A1816" stroke-width="0.9375" stroke-linecap="round" stroke-linejoin="round" points="36.7928523 43.5020525 29.3205085 43.5020525 29.943946 38.4935536 36.1694148 38.4935536"></polygon><path d="M40.5287813,46.0064647 L25.5849034,46.0064647 C25.5849034,44.6232658 26.7006136,43.5022153 28.0754148,43.5022153 L38.0382699,43.5022153 C39.413071,43.5022153 40.5287813,44.6232658 40.5287813,46.0064647" id="Fill-25" fill="#FFFFFF"></path><path d="M40.5287813,46.0064647 L25.5849034,46.0064647 C25.5849034,44.6232658 26.7006136,43.5022153 28.0754148,43.5022153 L38.0382699,43.5022153 C39.413071,43.5022153 40.5287813,44.6232658 40.5287813,46.0064647 Z" id="Stroke-27" stroke="#1A1816" stroke-width="0.9375" stroke-linecap="round" stroke-linejoin="round"></path><path d="M49.8675511,38.493635 C51.9313722,38.493635 53.6033182,36.8116522 53.6033182,34.7372609 L53.6033182,33.4851362 L12.5098807,33.4851362 L12.5098807,34.7372609 C12.5098807,36.8116522 14.1826364,38.493635 16.2464574,38.493635 L49.8675511,38.493635 Z" id="Fill-29" fill="#FFFFFF"></path><path d="M49.8675511,38.493635 C51.9313722,38.493635 53.6033182,36.8116522 53.6033182,34.7372609 L53.6033182,33.4851362 L12.5098807,33.4851362 L12.5098807,34.7372609 C12.5098807,36.8116522 14.1826364,38.493635 16.2464574,38.493635 L49.8675511,38.493635 Z" id="Stroke-31" stroke="#1A1816" stroke-width="0.9375" stroke-linecap="round" stroke-linejoin="round"></path><path d="M68.4161932,23.6696346 C69.1845597,24.4422395 69.1845597,25.6943642 68.4161932,26.4669691 C67.6486364,27.239574 66.402571,27.239574 65.6342045,26.4669691 L61.1519318,21.9599715 C60.7471023,21.5529088 60.7471023,20.8918391 61.1519318,20.4847764 L62.4660085,19.162637 C62.6611364,18.9672469 62.9250852,18.85734 63.2003693,18.85734 C63.4748438,18.85734 63.7396023,18.9672469 63.9339205,19.162637 L68.4161932,23.6696346 Z" id="Fill-33" fill="#DEA47A"></path><path d="M68.4161932,23.6696346 C69.1845597,24.4422395 69.1845597,25.6943642 68.4161932,26.4669691 C67.6486364,27.239574 66.402571,27.239574 65.6342045,26.4669691 L61.1519318,21.9599715 C60.7471023,21.5529088 60.7471023,20.8918391 61.1519318,20.4847764 L62.4660085,19.162637 C62.6611364,18.9672469 62.9250852,18.85734 63.2003693,18.85734 C63.4748438,18.85734 63.7396023,18.9672469 63.9339205,19.162637 L68.4161932,23.6696346 Z" id="Stroke-35" stroke="#1A1816" stroke-width="0.9375" stroke-linecap="round" stroke-linejoin="round"></path><polygon id="Fill-37" fill="#F0F0F0" points="62.5050341 19.1243731 61.1140398 20.5230403 57.636554 17.0263722 59.0275483 15.6277049"></polygon><polygon id="Stroke-39" stroke="#1A1816" stroke-width="0.9375" stroke-linecap="round" stroke-linejoin="round" points="62.5050341 19.1243731 61.1140398 20.5230403 57.636554 17.0263722 59.0275483 15.6277049"></polygon><path d="M59.3755398,4.78852216 C62.8327841,8.26483717 62.8327841,13.9002125 59.3755398,17.3765275 C55.9182955,20.8520284 50.3138352,20.8520284 46.8565909,17.3765275 C43.4001562,13.9002125 43.4001562,8.26483717 46.8565909,4.78852216 C50.3138352,1.31220715 55.9182955,1.31220715 59.3755398,4.78852216" id="Fill-41" fill="#FFFFFF"></path><path d="M59.3755398,4.78852216 C62.8327841,8.26483717 62.8327841,13.9002125 59.3755398,17.3765275 C55.9182955,20.8520284 50.3138352,20.8520284 46.8565909,17.3765275 C43.4001562,13.9002125 43.4001562,8.26483717 46.8565909,4.78852216 C50.3138352,1.31220715 55.9182955,1.31220715 59.3755398,4.78852216 Z" id="Stroke-43" stroke="#1A1816" stroke-width="0.9375" stroke-linecap="round" stroke-linejoin="round"></path><path d="M57.6367969,6.53685624 C60.1329759,9.04680452 60.1329759,13.117431 57.6367969,15.6281934 C55.1398082,18.1381417 51.0923224,18.1381417 48.5953338,15.6281934 C46.0991548,13.117431 46.0991548,9.04680452 48.5953338,6.53685624 C51.0923224,4.02690795 55.1398082,4.02690795 57.6367969,6.53685624" id="Fill-45" fill="#00B8F0"></path><path d="M57.6367969,6.53685624 C55.1398082,4.02690795 51.0923224,4.02690795 48.5953338,6.53685624 C46.0991548,9.04680452 46.0991548,13.117431 48.5953338,15.6281934 C48.6261009,15.658316 48.6592969,15.6843681 48.6900639,15.7136766 L57.7218111,6.63210889 C57.6926634,6.60117213 57.6667543,6.567793 57.6367969,6.53685624" id="Fill-47" fill="#4ACFFF"></path><path d="M57.6367969,6.53685624 C60.1329759,9.04680452 60.1329759,13.117431 57.6367969,15.6281934 C55.1398082,18.1381417 51.0923224,18.1381417 48.5953338,15.6281934 C46.0991548,13.117431 46.0991548,9.04680452 48.5953338,6.53685624 C51.0923224,4.02690795 55.1398082,4.02690795 57.6367969,6.53685624 Z" id="Stroke-49" stroke="#1A1816" stroke-width="0.9375" stroke-linecap="round" stroke-linejoin="round"></path><path d="M39.2835256,24.0942009 L46.7550597,24.0942009" id="Stroke-51" stroke="#1A1816" stroke-width="0.9375" stroke-linecap="round" stroke-linejoin="round"></path><path d="M39.2835256,26.5982061 L46.7550597,26.5982061" id="Stroke-53" stroke="#1A1816" stroke-width="0.9375" stroke-linecap="round" stroke-linejoin="round"></path><path d="M39.2835256,29.1026184 L46.7550597,29.1026184" id="Stroke-55" stroke="#1A1816" stroke-width="0.9375" stroke-linecap="round" stroke-linejoin="round"></path><path d="M29.943946,9.69435978 L29.943946,18.4592327 L38.6607358,18.4592327 C38.6607358,13.6184437 34.7573693,9.69435978 29.943946,9.69435978" id="Fill-57" fill="#6DD627"></path><path d="M29.943946,9.69435978 L29.943946,18.4592327 L38.6607358,18.4592327 C38.6607358,13.6184437 34.7573693,9.69435978 29.943946,9.69435978 Z" id="Stroke-59" stroke="#1A1816" stroke-width="0.9375" stroke-linecap="round" stroke-linejoin="round"></path><polyline id="Stroke-61" stroke="#1A1816" stroke-width="0.9375" stroke-linecap="round" stroke-linejoin="round" points="34.926831 15.3292466 38.0399702 12.1989348 41.1506804 12.1989348"></polyline><path d="M27.4532727,12.198772 C22.6390398,12.198772 18.7356733,16.1228559 18.7356733,20.9636449 C18.7356733,23.3840395 19.7113125,25.5756647 21.2893381,27.1615808 L27.4532727,20.9636449 L27.4532727,12.198772 Z" id="Fill-63" fill="#FF6242"></path><path d="M27.4532727,12.198772 C22.6390398,12.198772 18.7356733,16.1228559 18.7356733,20.9636449 C18.7356733,23.3840395 19.7113125,25.5756647 21.2893381,27.1615808 L27.4532727,20.9636449 L27.4532727,12.198772 Z" id="Stroke-65" stroke="#1A1816" stroke-width="0.9375" stroke-linecap="round" stroke-linejoin="round"></path><path d="M36.1698196,20.9637264 L27.4530298,20.9637264 L21.2890952,27.1616622 C22.8663111,28.7475783 25.0459134,29.7285993 27.4530298,29.7285993 C32.2680724,29.7285993 36.1698196,25.8045154 36.1698196,20.9637264" id="Fill-67" fill="#FFE600"></path><path d="M36.1698196,20.9637264 L27.4530298,20.9637264 L21.2890952,27.1616622 C22.8663111,28.7475783 25.0459134,29.7285993 27.4530298,29.7285993 C32.2680724,29.7285993 36.1698196,25.8045154 36.1698196,20.9637264 Z" id="Stroke-69" stroke="#1A1816" stroke-width="0.9375" stroke-linecap="round" stroke-linejoin="round"></path><polyline id="Stroke-71" stroke="#1A1816" stroke-width="0.9375" stroke-linecap="round" stroke-linejoin="round" points="28.0755767 27.2242685 31.1895256 30.9806426 35.5479205 30.9806426"></polyline><polyline id="Stroke-73" stroke="#1A1816" stroke-width="0.9375" stroke-linecap="round" stroke-linejoin="round" points="22.4720071 20.337664 19.9814957 15.9552275 15.000473 15.9552275"></polyline><path d="M33.5755909,35.9893042 C33.5755909,36.2775046 33.3432187,36.5111585 33.0565994,36.5111585 C32.7707898,36.5111585 32.5384176,36.2775046 32.5384176,35.9893042 C32.5384176,35.7011039 32.7707898,35.4674499 33.0565994,35.4674499 C33.3432187,35.4674499 33.5755909,35.7011039 33.5755909,35.9893042 Z" id="Stroke-75" stroke="#1A1816" stroke-width="0.9375" stroke-linecap="round" stroke-linejoin="round"></path></g></g></g></g></svg>